<?xml version="1.0" encoding="UTF-8"?> <svg xmlns="http://www.w3.org/2000/svg" id="Layer_1" data-name="Layer 1" viewBox="0 0 353.81 126"><defs><style>.cls-1{fill:#8ac342;}.cls-2{fill:#1b75b7;}.cls-3{fill:#8ec641;}</style></defs><path class="cls-1" d="M15.58,84H16.9l5.88,13.25H20.86l-1.75-3.91h-5.6l-1.64,3.91H10Zm2.76,7.66-2.12-4.77-2,4.77Z"></path><path class="cls-1" d="M34.64,84.06H36.4V97.24H34.51V87l-4,5.1h-.35L26.05,87V97.24H24.18V84.06H26l4.36,5.41Z"></path><path class="cls-1" d="M39.22,84.06h7.44v1.68H41.1v4h5.37v1.69H41.1v4.09h5.74v1.68H39.22Z"></path><path class="cls-1" d="M48.89,97.24V84.06h3.29a4.75,4.75,0,0,1,3.16,1,3.33,3.33,0,0,1,1.16,2.68A3.31,3.31,0,0,1,54.29,91a5.54,5.54,0,0,1,1.23,1.13,23.56,23.56,0,0,1,1.69,2.5c.46.75.82,1.31,1.1,1.69l.69.94H56.77l-.57-.87-.12-.16-.36-.52-.58-1-.63-1a9.86,9.86,0,0,0-1.07-1.29,3.94,3.94,0,0,0-.87-.69,2.8,2.8,0,0,0-1.31-.22h-.49v5.74Zm2.44-11.58h-.56v4.16h.71a5.39,5.39,0,0,0,2-.24,1.86,1.86,0,0,0,.83-.74,2.24,2.24,0,0,0,.29-1.13,2,2,0,0,0-.33-1.13,1.78,1.78,0,0,0-.92-.71A6.6,6.6,0,0,0,51.33,85.66Z"></path><path class="cls-1" d="M60.47,84.06h1.87V97.24H60.47Z"></path><path class="cls-1" d="M76.55,94.18v2.08a9.77,9.77,0,0,1-4.76,1.13,7.33,7.33,0,0,1-3.73-.89,6.44,6.44,0,0,1-2.42-2.44,6.61,6.61,0,0,1-.89-3.37,6.45,6.45,0,0,1,2-4.84,7,7,0,0,1,5-2A11.63,11.63,0,0,1,76.41,85v2a9,9,0,0,0-4.49-1.32,5.19,5.19,0,0,0-3.74,1.43,4.78,4.78,0,0,0-1.49,3.58,4.73,4.73,0,0,0,1.46,3.57,5.23,5.23,0,0,0,3.75,1.4A8.46,8.46,0,0,0,76.55,94.18Z"></path><path class="cls-1" d="M83.53,84h1.32l5.88,13.25H88.81l-1.75-3.91H81.47l-1.64,3.91H77.9Zm2.76,7.66-2.12-4.77-2,4.77Z"></path><path class="cls-1" d="M102.59,84.06h1.78V97.24h-1.62L94,87.09V97.24H92.22V84.06h1.52l8.85,10.24Z"></path><path class="cls-1" d="M115.76,91.72l-1.42-.87a6.48,6.48,0,0,1-1.91-1.62,3.11,3.11,0,0,1-.57-1.84,3.27,3.27,0,0,1,1.07-2.53,4,4,0,0,1,2.8-1,5.25,5.25,0,0,1,3,.93V87a4.35,4.35,0,0,0-3-1.37,2.48,2.48,0,0,0-1.51.43,1.28,1.28,0,0,0-.59,1.09,1.67,1.67,0,0,0,.43,1.11,5.66,5.66,0,0,0,1.4,1.09l1.44.85a4.22,4.22,0,0,1,2.4,3.66,3.39,3.39,0,0,1-1.06,2.58,3.85,3.85,0,0,1-2.75,1,5.73,5.73,0,0,1-3.53-1.2v-2.4a4.38,4.38,0,0,0,3.52,1.94,2.23,2.23,0,0,0,1.47-.49,1.55,1.55,0,0,0,.58-1.24C117.49,93.2,116.92,92.44,115.76,91.72Z"></path><path class="cls-1" d="M120.2,84h11v1.68h-4.57V97.24H124.7V85.72h-4.5Z"></path><path class="cls-1" d="M135.2,84h1.32l5.88,13.25h-1.93l-1.74-3.91h-5.6l-1.64,3.91h-1.93ZM138,91.65l-2.11-4.77-2,4.77Z"></path><path class="cls-1" d="M140.79,84h11v1.68h-4.57V97.24h-1.88V85.72h-4.5Z"></path><path class="cls-1" d="M153.54,84.06h1.88V97.24h-1.88Z"></path><path class="cls-1" d="M161.57,91.72l-1.42-.87a6.35,6.35,0,0,1-1.91-1.62,3.11,3.11,0,0,1-.57-1.84,3.27,3.27,0,0,1,1.07-2.53,4,4,0,0,1,2.8-1,5.27,5.27,0,0,1,3,.93V87a4.35,4.35,0,0,0-3.05-1.37A2.46,2.46,0,0,0,160,86a1.29,1.29,0,0,0-.6,1.09,1.68,1.68,0,0,0,.44,1.11,5.66,5.66,0,0,0,1.4,1.09l1.44.85a4.21,4.21,0,0,1,2.39,3.66A3.38,3.38,0,0,1,164,96.4a3.87,3.87,0,0,1-2.75,1,5.78,5.78,0,0,1-3.54-1.2v-2.4a4.41,4.41,0,0,0,3.52,1.94,2.19,2.19,0,0,0,1.47-.49A1.56,1.56,0,0,0,163.3,94C163.3,93.2,162.72,92.44,161.57,91.72Z"></path><path class="cls-1" d="M166,84h11v1.68H172.4V97.24h-1.89V85.72H166Z"></path><path class="cls-1" d="M178.76,84.06h1.88V97.24h-1.88Z"></path><path class="cls-1" d="M194.85,94.18v2.08a9.83,9.83,0,0,1-4.77,1.13,7.35,7.35,0,0,1-3.73-.89,6.52,6.52,0,0,1-2.42-2.44,6.71,6.71,0,0,1-.89-3.37,6.45,6.45,0,0,1,2-4.84,7,7,0,0,1,5-2A11.63,11.63,0,0,1,194.71,85v2a9,9,0,0,0-4.5-1.32,5.19,5.19,0,0,0-3.74,1.43A4.78,4.78,0,0,0,185,90.69a4.71,4.71,0,0,0,1.47,3.57,5.19,5.19,0,0,0,3.74,1.4A8.51,8.51,0,0,0,194.85,94.18Z"></path><path class="cls-1" d="M201.82,84h1.32L209,97.24H207.1l-1.75-3.91h-5.59l-1.64,3.91h-1.93Zm2.76,7.66-2.11-4.77-2,4.77Z"></path><path class="cls-1" d="M210.46,84.06h1.88V95.52h5.9v1.72h-7.78Z"></path><path class="cls-1" d="M227.49,84h1.32l5.88,13.25h-1.92L231,93.33h-5.6l-1.64,3.91h-1.92Zm2.76,7.66-2.12-4.77-2,4.77Z"></path><path class="cls-1" d="M239.37,91.72l-1.43-.87A6.61,6.61,0,0,1,236,89.23a3.17,3.17,0,0,1-.56-1.84,3.27,3.27,0,0,1,1.07-2.53,4,4,0,0,1,2.79-1,5.28,5.28,0,0,1,3,.93V87a4.35,4.35,0,0,0-3-1.37,2.46,2.46,0,0,0-1.51.43,1.29,1.29,0,0,0-.6,1.09,1.68,1.68,0,0,0,.44,1.11,5.66,5.66,0,0,0,1.4,1.09l1.43.85a4.22,4.22,0,0,1,2.4,3.66,3.38,3.38,0,0,1-1.05,2.58,3.87,3.87,0,0,1-2.75,1,5.78,5.78,0,0,1-3.54-1.2v-2.4A4.41,4.41,0,0,0,239,95.73a2.19,2.19,0,0,0,1.47-.49A1.56,1.56,0,0,0,241.1,94C241.1,93.2,240.52,92.44,239.37,91.72Z"></path><path class="cls-1" d="M248.18,91.72l-1.43-.87a6.48,6.48,0,0,1-1.91-1.62,3.11,3.11,0,0,1-.57-1.84,3.25,3.25,0,0,1,1.08-2.53,4,4,0,0,1,2.79-1,5.25,5.25,0,0,1,3,.93V87a4.34,4.34,0,0,0-3.05-1.37,2.48,2.48,0,0,0-1.51.43,1.3,1.3,0,0,0-.59,1.09,1.67,1.67,0,0,0,.43,1.11,5.56,5.56,0,0,0,1.41,1.09l1.43.85a4.22,4.22,0,0,1,2.4,3.66,3.36,3.36,0,0,1-1.06,2.58,3.84,3.84,0,0,1-2.74,1,5.74,5.74,0,0,1-3.54-1.2v-2.4a4.39,4.39,0,0,0,3.52,1.94,2.19,2.19,0,0,0,1.47-.49A1.55,1.55,0,0,0,249.9,94C249.9,93.2,249.33,92.44,248.18,91.72Z"></path><path class="cls-1" d="M260.17,83.87a7,7,0,0,1,5.06,1.94,6.41,6.41,0,0,1,2,4.85,6.32,6.32,0,0,1-2,4.82,7.23,7.23,0,0,1-5.14,1.91,6.82,6.82,0,0,1-4.94-1.91,6.37,6.37,0,0,1-2-4.79,6.5,6.5,0,0,1,2-4.88A6.93,6.93,0,0,1,260.17,83.87Zm.07,1.79a5.1,5.1,0,0,0-3.7,1.42,4.85,4.85,0,0,0-1.45,3.61,4.75,4.75,0,0,0,1.46,3.55,5.36,5.36,0,0,0,7.3,0,4.83,4.83,0,0,0,1.47-3.59,4.74,4.74,0,0,0-1.47-3.53A5,5,0,0,0,260.24,85.66Z"></path><path class="cls-1" d="M280.86,94.18v2.08a9.78,9.78,0,0,1-4.77,1.13,7.32,7.32,0,0,1-3.72-.89,6.54,6.54,0,0,1-2.43-2.44,6.71,6.71,0,0,1-.89-3.37,6.45,6.45,0,0,1,2-4.84,7,7,0,0,1,5-2A11.63,11.63,0,0,1,280.72,85v2a9,9,0,0,0-4.5-1.32,5.21,5.21,0,0,0-3.74,1.43A4.78,4.78,0,0,0,271,90.69a4.7,4.7,0,0,0,1.46,3.57,5.23,5.23,0,0,0,3.75,1.4A8.48,8.48,0,0,0,280.86,94.18Z"></path><path class="cls-1" d="M283.19,84.06h1.88V97.24h-1.88Z"></path><path class="cls-1" d="M292.16,84h1.32l5.88,13.25h-1.92l-1.75-3.91H290.1l-1.64,3.91h-1.93Zm2.76,7.66-2.11-4.77-2,4.77Z"></path><path class="cls-1" d="M297.76,84h10.95v1.68h-4.57V97.24h-1.88V85.72h-4.5Z"></path><path class="cls-1" d="M310.51,84.06h1.87V97.24h-1.87Z"></path><path class="cls-1" d="M321.73,83.87a7,7,0,0,1,5.06,1.94,6.41,6.41,0,0,1,2,4.85,6.32,6.32,0,0,1-2,4.82,7.26,7.26,0,0,1-5.15,1.91,6.81,6.81,0,0,1-4.93-1.91,6.37,6.37,0,0,1-2-4.79,6.5,6.5,0,0,1,2-4.88A6.93,6.93,0,0,1,321.73,83.87Zm.07,1.79a5.1,5.1,0,0,0-3.7,1.42,4.85,4.85,0,0,0-1.45,3.61,4.75,4.75,0,0,0,1.46,3.55,5.36,5.36,0,0,0,7.3,0,4.83,4.83,0,0,0,1.47-3.59,4.74,4.74,0,0,0-1.47-3.53A5,5,0,0,0,321.8,85.66Z"></path><path class="cls-1" d="M341.54,84.06h1.78V97.24h-1.61l-8.77-10.15V97.24h-1.76V84.06h1.52l8.84,10.24Z"></path><path class="cls-2" d="M11.53,114.07V102.94H15a3.62,3.62,0,0,1,2.53.86,3,3,0,0,1,.94,2.31,3.14,3.14,0,0,1-.48,1.72,2.75,2.75,0,0,1-1.32,1.08,6.63,6.63,0,0,1-2.41.34H13.12v4.82Zm3.23-9.71H13.12v3.47h1.73a2.21,2.21,0,0,0,1.49-.45,1.65,1.65,0,0,0,.52-1.31Q16.86,104.36,14.76,104.36Z"></path><path class="cls-2" d="M21.17,106.75v1.68l.08-.13c.7-1.13,1.4-1.69,2.09-1.69a2.52,2.52,0,0,1,1.7.83l-.76,1.27a2.11,2.11,0,0,0-1.39-.72,1.53,1.53,0,0,0-1.21.67,2.53,2.53,0,0,0-.51,1.58v3.83H19.73v-7.32Z"></path><path class="cls-2" d="M29.08,106.74a3.8,3.8,0,0,1,2.76,1.07,3.65,3.65,0,0,1,1.1,2.71,3.43,3.43,0,0,1-1.12,2.63,3.92,3.92,0,0,1-2.8,1,3.77,3.77,0,0,1-2.74-1.07,3.49,3.49,0,0,1-1.1-2.65,3.55,3.55,0,0,1,1.11-2.67A3.83,3.83,0,0,1,29.08,106.74ZM29,108a2.28,2.28,0,0,0-1.7.68,2.43,2.43,0,0,0-.67,1.75,2.29,2.29,0,0,0,.68,1.71,2.42,2.42,0,0,0,1.75.66,2.41,2.41,0,0,0,1.71-4.12A2.46,2.46,0,0,0,29,108Z"></path><path class="cls-2" d="M40.46,108.76v5.31H39V110a3.29,3.29,0,0,0-.32-1.7,1.28,1.28,0,0,0-1.14-.48,1.74,1.74,0,0,0-.82.2,3.74,3.74,0,0,0-.86.74v5.31H34.43v-7.32h1.44v1a3.14,3.14,0,0,1,2.15-1.1,2.38,2.38,0,0,1,2.15,1.32,3.25,3.25,0,0,1,2.41-1.34,2.2,2.2,0,0,1,1.74.78,3.5,3.5,0,0,1,.69,2.38v4.32H43.57v-4.34a2.35,2.35,0,0,0-.37-1.4,1.28,1.28,0,0,0-1.07-.48A2.18,2.18,0,0,0,40.46,108.76Z"></path><path class="cls-2" d="M50.42,106.74a3.8,3.8,0,0,1,2.76,1.07,3.65,3.65,0,0,1,1.1,2.71,3.46,3.46,0,0,1-1.11,2.63,4,4,0,0,1-2.81,1,3.77,3.77,0,0,1-2.74-1.07,3.75,3.75,0,0,1,0-5.32A3.83,3.83,0,0,1,50.42,106.74Zm-.08,1.3a2.28,2.28,0,0,0-1.7.68,2.43,2.43,0,0,0-.67,1.75,2.26,2.26,0,0,0,.69,1.71,2.38,2.38,0,0,0,1.74.66,2.41,2.41,0,0,0,1.71-4.12A2.46,2.46,0,0,0,50.34,108Z"></path><path class="cls-2" d="M54.81,107.91l2.71-2.67v1.51h2.3v1.31h-2.3v3.58c0,.83.34,1.25,1,1.25a3.14,3.14,0,0,0,1.64-.52v1.36a3.65,3.65,0,0,1-1.81.47,2.44,2.44,0,0,1-1.65-.58,1.85,1.85,0,0,1-.34-.4,2.06,2.06,0,0,1-.22-.57,6.6,6.6,0,0,1-.09-1.35v-3.24H54.81Z"></path><path class="cls-2" d="M61.92,103.67a.86.86,0,0,1,.61.25.83.83,0,0,1,0,1.21.82.82,0,0,1-.61.25.79.79,0,0,1-.58-.25.85.85,0,0,1-.25-.6.83.83,0,0,1,.25-.6A.8.8,0,0,1,61.92,103.67Zm-.71,3.08h1.44v7.32H61.21Z"></path><path class="cls-2" d="M66.12,106.75v.93a2.93,2.93,0,0,1,2.2-1.07,2.44,2.44,0,0,1,1.26.35,2.31,2.31,0,0,1,.89,1,4.54,4.54,0,0,1,.31,2v4.18H69.34V109.9a2.9,2.9,0,0,0-.34-1.6,1.31,1.31,0,0,0-1.14-.48,2.09,2.09,0,0,0-1.74,1v5.23H64.65v-7.32Z"></path><path class="cls-2" d="M72.37,109.28a2.24,2.24,0,0,1,.85-1.85,3.64,3.64,0,0,1,2.32-.68h3v1.13H77.07a3.06,3.06,0,0,1,.59.8,1.9,1.9,0,0,1,.17.82,2.16,2.16,0,0,1-.33,1.12,2.26,2.26,0,0,1-.83.85,5.33,5.33,0,0,1-1.67.47c-.55.08-.82.27-.82.56a.48.48,0,0,0,.31.42,4.83,4.83,0,0,0,1.1.34,11.51,11.51,0,0,1,1.72.46,2,2,0,0,1,.69.48,1.79,1.79,0,0,1,.53,1.32,1.92,1.92,0,0,1-.93,1.66,5.21,5.21,0,0,1-4.95,0,1.91,1.91,0,0,1-.93-1.67q0-1.48,1.83-1.92c-.49-.31-.73-.62-.73-.93a.83.83,0,0,1,.31-.63,2,2,0,0,1,.84-.42A2.4,2.4,0,0,1,72.37,109.28Zm2.36,5.13a2.09,2.09,0,0,0-1.19.31.92.92,0,0,0-.46.8c0,.75.68,1.13,2,1.13a3.16,3.16,0,0,0,1.48-.29.88.88,0,0,0,.53-.8c0-.34-.23-.61-.67-.83A4,4,0,0,0,74.73,114.41Zm.34-6.4a1.34,1.34,0,0,0-1,.4,1.24,1.24,0,0,0-.41,1,1.18,1.18,0,0,0,.4.93,1.59,1.59,0,0,0,2,0,1.25,1.25,0,0,0,.4-1,1.21,1.21,0,0,0-.41-1A1.45,1.45,0,0,0,75.07,108Z"></path><path class="cls-2" d="M83,107.91l2.71-2.67v1.51h2.3v1.31h-2.3v3.58c0,.83.34,1.25,1,1.25a3.14,3.14,0,0,0,1.64-.52v1.36a3.65,3.65,0,0,1-1.81.47,2.44,2.44,0,0,1-1.65-.58,1.85,1.85,0,0,1-.34-.4,2.06,2.06,0,0,1-.22-.57,6.6,6.6,0,0,1-.09-1.35v-3.24H83Z"></path><path class="cls-2" d="M89.38,103h1.44v4.75a2.8,2.8,0,0,1,2.24-1.1,2.4,2.4,0,0,1,1.3.36,2.15,2.15,0,0,1,.86,1,4.89,4.89,0,0,1,.28,1.91v4.17H94.06v-4.53a2,2,0,0,0-.39-1.29,1.27,1.27,0,0,0-1-.49,1.67,1.67,0,0,0-.89.25,4.06,4.06,0,0,0-.93.82v5.24H89.38Z"></path><path class="cls-2" d="M103.67,110.54H98.55a2.42,2.42,0,0,0,.7,1.67,2.33,2.33,0,0,0,1.67.62,4.32,4.32,0,0,0,2.62-.89v1.41a4.8,4.8,0,0,1-1.31.64,5.45,5.45,0,0,1-1.54.19,3.42,3.42,0,0,1-1.94-.5,3.54,3.54,0,0,1-1.19-1.35,4.11,4.11,0,0,1-.45-2,3.91,3.91,0,0,1,.94-2.72,3.16,3.16,0,0,1,2.45-1,2.88,2.88,0,0,1,2.31,1,4.09,4.09,0,0,1,.86,2.72Zm-5.09-.87h3.67a2,2,0,0,0-.52-1.34,1.64,1.64,0,0,0-1.23-.46,1.77,1.77,0,0,0-1.27.46A2.36,2.36,0,0,0,98.58,109.67Z"></path><path class="cls-2" d="M109.75,114.07V102.94h3.5a3.62,3.62,0,0,1,2.53.86,3,3,0,0,1,.94,2.31,3.06,3.06,0,0,1-.49,1.72,2.75,2.75,0,0,1-1.32,1.08,6.57,6.57,0,0,1-2.4.34h-1.17v4.82Zm3.22-9.71h-1.63v3.47h1.73a2.23,2.23,0,0,0,1.49-.45,1.65,1.65,0,0,0,.52-1.31C115.08,104.93,114.38,104.36,113,104.36Z"></path><path class="cls-2" d="M119.39,106.75v1.68l.08-.13c.7-1.13,1.39-1.69,2.09-1.69a2.54,2.54,0,0,1,1.7.83l-.76,1.27a2.11,2.11,0,0,0-1.39-.72,1.5,1.5,0,0,0-1.21.67,2.53,2.53,0,0,0-.51,1.58v3.83h-1.45v-7.32Z"></path><path class="cls-2" d="M128.79,109.67v3.11c0,.25.09.37.26.37a1.75,1.75,0,0,0,.81-.39v.89a5.08,5.08,0,0,1-.79.43,1.63,1.63,0,0,1-.62.12c-.62,0-1-.25-1.09-.74a3.11,3.11,0,0,1-2,.72,1.71,1.71,0,0,1-1.26-.51,1.68,1.68,0,0,1-.51-1.26,1.8,1.8,0,0,1,.5-1.24,3.31,3.31,0,0,1,1.4-.86l1.85-.64v-.39a1.17,1.17,0,0,0-1.32-1.32,3.15,3.15,0,0,0-2.29,1.23V107.6a3,3,0,0,1,2.41-1,2.78,2.78,0,0,1,1.89.62,2,2,0,0,1,.43.53,1.76,1.76,0,0,1,.24.66A10.84,10.84,0,0,1,128.79,109.67Zm-1.41,3v-2.17l-1,.37a3.26,3.26,0,0,0-1,.6,1.06,1.06,0,0,0,0,1.48,1.05,1.05,0,0,0,.75.29A1.83,1.83,0,0,0,127.38,112.62Z"></path><path class="cls-2" d="M136.55,112.36v1.43a6.08,6.08,0,0,1-2.12.41,3.51,3.51,0,0,1-3.75-3.75,3.89,3.89,0,0,1,1-2.78,3.39,3.39,0,0,1,2.61-1.06,3.83,3.83,0,0,1,1,.11,6.14,6.14,0,0,1,1.11.4v1.54a3.81,3.81,0,0,0-2-.7,2.07,2.07,0,0,0-1.6.69,2.53,2.53,0,0,0-.62,1.75,2.37,2.37,0,0,0,.67,1.78,2.52,2.52,0,0,0,1.83.66A4.82,4.82,0,0,0,136.55,112.36Z"></path><path class="cls-2" d="M137.11,107.91l2.71-2.67v1.51h2.3v1.31h-2.3v3.58c0,.83.35,1.25,1,1.25a3.2,3.2,0,0,0,1.64-.52v1.36a3.68,3.68,0,0,1-1.82.47,2.42,2.42,0,0,1-1.64-.58,1.61,1.61,0,0,1-.34-.4,2,2,0,0,1-.23-.57,6.6,6.6,0,0,1-.09-1.35v-3.24h-1.27Z"></path><path class="cls-2" d="M144.23,103.67a.86.86,0,0,1,.61.25.86.86,0,0,1-.61,1.46.81.81,0,0,1-.59-.25.85.85,0,0,1-.25-.6.83.83,0,0,1,.25-.6A.82.82,0,0,1,144.23,103.67Zm-.71,3.08H145v7.32h-1.44Z"></path><path class="cls-2" d="M152.45,112.36v1.43a6,6,0,0,1-2.12.41,3.5,3.5,0,0,1-3.74-3.75,3.89,3.89,0,0,1,1-2.78,3.39,3.39,0,0,1,2.61-1.06,4,4,0,0,1,1,.11,6.36,6.36,0,0,1,1.1.4v1.54a3.78,3.78,0,0,0-2-.7,2,2,0,0,0-1.59.69,2.49,2.49,0,0,0-.63,1.75,2.37,2.37,0,0,0,.68,1.78,2.5,2.5,0,0,0,1.82.66A4.78,4.78,0,0,0,152.45,112.36Z"></path><path class="cls-2" d="M160.24,110.54h-5.12a2.42,2.42,0,0,0,.7,1.67,2.33,2.33,0,0,0,1.67.62,4.37,4.37,0,0,0,2.63-.89v1.41a5,5,0,0,1-1.32.64,5.43,5.43,0,0,1-1.53.19,3.48,3.48,0,0,1-2-.5,3.63,3.63,0,0,1-1.19-1.35,4.11,4.11,0,0,1-.45-2,4,4,0,0,1,.94-2.72,3.17,3.17,0,0,1,2.45-1,2.87,2.87,0,0,1,2.31,1,4,4,0,0,1,.86,2.72Zm-5.09-.87h3.67a2,2,0,0,0-.52-1.34,1.63,1.63,0,0,0-1.23-.46,1.77,1.77,0,0,0-1.27.46A2.36,2.36,0,0,0,155.15,109.67Z"></path><path class="cls-2" d="M170.72,109.67v3.11c0,.25.08.37.25.37a1.77,1.77,0,0,0,.82-.39v.89a5.08,5.08,0,0,1-.79.43,1.67,1.67,0,0,1-.62.12,1,1,0,0,1-1.1-.74,3.1,3.1,0,0,1-1.95.72,1.73,1.73,0,0,1-1.77-1.77,1.79,1.79,0,0,1,.49-1.24,3.35,3.35,0,0,1,1.41-.86l1.84-.64v-.39A1.16,1.16,0,0,0,168,108a3.17,3.17,0,0,0-2.3,1.23V107.6a3,3,0,0,1,2.42-1,2.81,2.81,0,0,1,1.89.62,1.93,1.93,0,0,1,.42.53,2,2,0,0,1,.25.66A10.84,10.84,0,0,1,170.72,109.67Zm-1.42,3v-2.17l-1,.37a3.38,3.38,0,0,0-1,.6,1,1,0,0,0-.3.74,1,1,0,0,0,1,1A1.79,1.79,0,0,0,169.3,112.62Z"></path><path class="cls-2" d="M174.5,106.75v.93a2.89,2.89,0,0,1,2.19-1.07A2.45,2.45,0,0,1,178,107a2.31,2.31,0,0,1,.89,1,4.73,4.73,0,0,1,.3,2v4.18h-1.44V109.9a2.82,2.82,0,0,0-.34-1.6,1.28,1.28,0,0,0-1.14-.48,2.07,2.07,0,0,0-1.73,1v5.23H173v-7.32Z"></path><path class="cls-2" d="M186,103h1.45v11.11h-3.08a3.34,3.34,0,0,1-2.57-1,3.86,3.86,0,0,1-1-2.75,3.68,3.68,0,0,1,1-2.66,3.46,3.46,0,0,1,2.58-1,4.85,4.85,0,0,1,1.58.31Zm0,9.87v-4.64a2.94,2.94,0,0,0-1.36-.34,2.18,2.18,0,0,0-1.71.71,2.72,2.72,0,0,0-.64,1.91,2.51,2.51,0,0,0,.55,1.74,1.75,1.75,0,0,0,.71.49,4.52,4.52,0,0,0,1.34.13Z"></path><path class="cls-2" d="M194,114.07V102.94h3.5a3.62,3.62,0,0,1,2.53.86,3,3,0,0,1,.94,2.31,3.14,3.14,0,0,1-.48,1.72,2.75,2.75,0,0,1-1.32,1.08,6.63,6.63,0,0,1-2.41.34h-1.17v4.82Zm3.23-9.71h-1.64v3.47h1.73a2.21,2.21,0,0,0,1.49-.45,1.65,1.65,0,0,0,.52-1.31Q199.37,104.36,197.27,104.36Z"></path><path class="cls-2" d="M203.73,106.75v1.68l.08-.13c.7-1.13,1.39-1.69,2.09-1.69a2.54,2.54,0,0,1,1.7.83l-.76,1.27a2.11,2.11,0,0,0-1.39-.72,1.52,1.52,0,0,0-1.21.67,2.53,2.53,0,0,0-.51,1.58v3.83h-1.45v-7.32Z"></path><path class="cls-2" d="M211.69,106.74a3.83,3.83,0,0,1,2.76,1.07,3.65,3.65,0,0,1,1.1,2.71,3.43,3.43,0,0,1-1.12,2.63,3.93,3.93,0,0,1-2.81,1,3.8,3.8,0,0,1-2.74-1.07,3.74,3.74,0,0,1,0-5.32A3.83,3.83,0,0,1,211.69,106.74Zm-.08,1.3a2.28,2.28,0,0,0-1.7.68,2.39,2.39,0,0,0-.67,1.75,2.29,2.29,0,0,0,.68,1.71,2.42,2.42,0,0,0,1.75.66,2.35,2.35,0,0,0,1.74-.67,2.51,2.51,0,0,0,0-3.45A2.46,2.46,0,0,0,211.61,108Z"></path><path class="cls-2" d="M217.31,106.75v-.44a4,4,0,0,1,.75-2.63,2.28,2.28,0,0,1,1.79-.86,4.56,4.56,0,0,1,1.07.14v1.41a2,2,0,0,0-.66-.12,1.37,1.37,0,0,0-1.18.45,2.86,2.86,0,0,0-.33,1.61v.44h1.3v1.31h-1.3v6h-1.44v-6h-1v-1.31Z"></path><path class="cls-2" d="M227.24,110.54h-5.12a2.38,2.38,0,0,0,.71,1.67,2.29,2.29,0,0,0,1.66.62,4.35,4.35,0,0,0,2.63-.89v1.41a4.85,4.85,0,0,1-1.32.64,5.38,5.38,0,0,1-1.53.19,3.48,3.48,0,0,1-2-.5,3.72,3.72,0,0,1-1.19-1.35,4.11,4.11,0,0,1-.45-2,3.92,3.92,0,0,1,.95-2.72,3.14,3.14,0,0,1,2.44-1,2.86,2.86,0,0,1,2.31,1,4,4,0,0,1,.86,2.72Zm-5.08-.87h3.66a2.09,2.09,0,0,0-.51-1.34,1.67,1.67,0,0,0-1.24-.46,1.77,1.77,0,0,0-1.27.46A2.35,2.35,0,0,0,222.16,109.67Z"></path><path class="cls-2" d="M228.45,113.54V112a6.42,6.42,0,0,0,1.24.7,2.92,2.92,0,0,0,1.08.27,1.37,1.37,0,0,0,.77-.22.65.65,0,0,0,.33-.54.72.72,0,0,0-.21-.53,5.41,5.41,0,0,0-.91-.61,6.06,6.06,0,0,1-1.82-1.33,1.91,1.91,0,0,1-.44-1.2,1.7,1.7,0,0,1,.66-1.38,2.58,2.58,0,0,1,1.68-.53,4.64,4.64,0,0,1,2.19.6v1.43a4.3,4.3,0,0,0-2.1-.77,1.13,1.13,0,0,0-.67.18.54.54,0,0,0-.26.47.68.68,0,0,0,.23.48,4,4,0,0,0,.82.56l.52.3c1.21.68,1.82,1.45,1.82,2.28a1.85,1.85,0,0,1-.7,1.48,2.78,2.78,0,0,1-1.8.58,4.5,4.5,0,0,1-1.16-.14A8.34,8.34,0,0,1,228.45,113.54Z"></path><path class="cls-2" d="M234.68,113.54V112a6.8,6.8,0,0,0,1.25.7A2.83,2.83,0,0,0,237,113a1.43,1.43,0,0,0,.78-.22.66.66,0,0,0,.32-.54.72.72,0,0,0-.21-.53,5.2,5.2,0,0,0-.9-.61,6.28,6.28,0,0,1-1.83-1.33,1.9,1.9,0,0,1-.43-1.2,1.72,1.72,0,0,1,.65-1.38,2.63,2.63,0,0,1,1.69-.53,4.64,4.64,0,0,1,2.19.6v1.43a4.37,4.37,0,0,0-2.1-.77,1.19,1.19,0,0,0-.68.18.53.53,0,0,0-.25.47.64.64,0,0,0,.23.48,4,4,0,0,0,.82.56l.51.3c1.22.68,1.82,1.45,1.82,2.28a1.82,1.82,0,0,1-.7,1.48,2.74,2.74,0,0,1-1.8.58,4.47,4.47,0,0,1-1.15-.14A8.39,8.39,0,0,1,234.68,113.54Z"></path><path class="cls-2" d="M242,103.67a.86.86,0,0,1,.61.25.86.86,0,0,1-.61,1.46.81.81,0,0,1-.59-.25.85.85,0,0,1-.25-.6.83.83,0,0,1,.25-.6A.82.82,0,0,1,242,103.67Zm-.71,3.08h1.44v7.32h-1.44Z"></path><path class="cls-2" d="M248.31,106.74a3.8,3.8,0,0,1,2.76,1.07,3.61,3.61,0,0,1,1.1,2.71,3.46,3.46,0,0,1-1.11,2.63,4,4,0,0,1-2.81,1,3.79,3.79,0,0,1-2.74-1.07,3.75,3.75,0,0,1,0-5.32A3.83,3.83,0,0,1,248.31,106.74Zm-.08,1.3a2.28,2.28,0,0,0-1.7.68,2.42,2.42,0,0,0-.66,1.75,2.25,2.25,0,0,0,.68,1.71,2.39,2.39,0,0,0,1.75.66,2.41,2.41,0,0,0,1.7-4.12A2.46,2.46,0,0,0,248.23,108Z"></path><path class="cls-2" d="M255.21,106.75v.93a2.92,2.92,0,0,1,2.19-1.07,2.45,2.45,0,0,1,1.27.35,2.31,2.31,0,0,1,.89,1,4.7,4.7,0,0,1,.31,2v4.18h-1.45V109.9a2.82,2.82,0,0,0-.34-1.6,1.28,1.28,0,0,0-1.13-.48,2.08,2.08,0,0,0-1.74,1v5.23h-1.47v-7.32Z"></path><path class="cls-2" d="M269.86,106.74a3.8,3.8,0,0,1,2.76,1.07,3.65,3.65,0,0,1,1.1,2.71,3.46,3.46,0,0,1-1.11,2.63,4,4,0,0,1-2.81,1,3.77,3.77,0,0,1-2.74-1.07,3.49,3.49,0,0,1-1.1-2.65,3.55,3.55,0,0,1,1.11-2.67A3.83,3.83,0,0,1,269.86,106.74Zm-.08,1.3a2.28,2.28,0,0,0-1.7.68,2.43,2.43,0,0,0-.67,1.75,2.26,2.26,0,0,0,.69,1.71,2.38,2.38,0,0,0,1.74.66,2.41,2.41,0,0,0,1.71-4.12A2.46,2.46,0,0,0,269.78,108Z"></path><path class="cls-2" d="M275.49,106.75v-.44a4,4,0,0,1,.74-2.63,2.29,2.29,0,0,1,1.8-.86,4.62,4.62,0,0,1,1.07.14v1.41a2.11,2.11,0,0,0-.67-.12,1.35,1.35,0,0,0-1.17.45,2.86,2.86,0,0,0-.33,1.61v.44h1.3v1.31h-1.3v6h-1.44v-6h-1.05v-1.31Z"></path><path class="cls-2" d="M286.81,109.41l-1.2-.73a5.34,5.34,0,0,1-1.61-1.37,2.56,2.56,0,0,1-.48-1.54,2.74,2.74,0,0,1,.91-2.14,3.37,3.37,0,0,1,2.35-.81,4.45,4.45,0,0,1,2.54.78v1.8a3.65,3.65,0,0,0-2.57-1.15,2.15,2.15,0,0,0-1.28.36,1.1,1.1,0,0,0-.5.92,1.49,1.49,0,0,0,.37.94,4.78,4.78,0,0,0,1.18.91l1.21.72a3.56,3.56,0,0,1,2,3.09,2.82,2.82,0,0,1-.89,2.17,3.22,3.22,0,0,1-2.31.84,4.8,4.8,0,0,1-3-1v-2a3.71,3.71,0,0,0,3,1.64,1.84,1.84,0,0,0,1.24-.42,1.31,1.31,0,0,0,.5-1C288.27,110.66,287.78,110,286.81,109.41Z"></path><path class="cls-2" d="M290.28,107.91l2.7-2.67v1.51h2.31v1.31H293v3.58c0,.83.35,1.25,1,1.25a3.17,3.17,0,0,0,1.64-.52v1.36a3.67,3.67,0,0,1-1.81.47,2.44,2.44,0,0,1-1.65-.58,1.61,1.61,0,0,1-.34-.4,2,2,0,0,1-.23-.57,6.6,6.6,0,0,1-.09-1.35v-3.24h-1.26Z"></path><path class="cls-2" d="M301.27,109.67v3.11c0,.25.08.37.25.37a1.73,1.73,0,0,0,.82-.39v.89a5.08,5.08,0,0,1-.79.43,1.63,1.63,0,0,1-.62.12c-.62,0-1-.25-1.09-.74a3.15,3.15,0,0,1-2,.72,1.74,1.74,0,0,1-1.77-1.77,1.79,1.79,0,0,1,.49-1.24,3.35,3.35,0,0,1,1.41-.86l1.84-.64v-.39a1.16,1.16,0,0,0-1.31-1.32,3.17,3.17,0,0,0-2.3,1.23V107.6a3,3,0,0,1,2.42-1,2.81,2.81,0,0,1,1.89.62,2,2,0,0,1,.43.53,2.2,2.2,0,0,1,.24.66A10.84,10.84,0,0,1,301.27,109.67Zm-1.42,3v-2.17l-1,.37a3.26,3.26,0,0,0-1,.6,1,1,0,0,0-.31.74,1,1,0,0,0,1,1A1.79,1.79,0,0,0,299.85,112.62Z"></path><path class="cls-2" d="M302.59,107.91l2.71-2.67v1.51h2.3v1.31h-2.3v3.58c0,.83.34,1.25,1,1.25a3.14,3.14,0,0,0,1.64-.52v1.36a3.65,3.65,0,0,1-1.81.47,2.44,2.44,0,0,1-1.65-.58,1.85,1.85,0,0,1-.34-.4,2.06,2.06,0,0,1-.22-.57,6.6,6.6,0,0,1-.09-1.35v-3.24h-1.27Z"></path><path class="cls-2" d="M309.75,103.67a.86.86,0,0,1,.61.25.83.83,0,0,1,0,1.21.82.82,0,0,1-.61.25.79.79,0,0,1-.58-.25.86.86,0,0,1-.26-.6.84.84,0,0,1,.26-.6A.8.8,0,0,1,309.75,103.67Zm-.71,3.08h1.44v7.32H309Z"></path><path class="cls-2" d="M312.21,113.54V112a6.42,6.42,0,0,0,1.24.7,2.92,2.92,0,0,0,1.07.27,1.4,1.4,0,0,0,.78-.22.64.64,0,0,0,.32-.54.72.72,0,0,0-.2-.53,5.41,5.41,0,0,0-.91-.61,6.06,6.06,0,0,1-1.82-1.33,1.91,1.91,0,0,1-.44-1.2,1.7,1.7,0,0,1,.66-1.38,2.58,2.58,0,0,1,1.68-.53,4.64,4.64,0,0,1,2.19.6v1.43a4.3,4.3,0,0,0-2.1-.77,1.13,1.13,0,0,0-.67.18.54.54,0,0,0-.26.47.68.68,0,0,0,.23.48,4,4,0,0,0,.82.56l.52.3c1.21.68,1.82,1.45,1.82,2.28a1.85,1.85,0,0,1-.7,1.48,2.78,2.78,0,0,1-1.8.58,4.5,4.5,0,0,1-1.16-.14A8.34,8.34,0,0,1,312.21,113.54Z"></path><path class="cls-2" d="M317.78,107.91l2.7-2.67v1.51h2.31v1.31h-2.31v3.58c0,.83.35,1.25,1,1.25a3.17,3.17,0,0,0,1.64-.52v1.36a3.67,3.67,0,0,1-1.81.47,2.44,2.44,0,0,1-1.65-.58,1.61,1.61,0,0,1-.34-.4,2.4,2.4,0,0,1-.23-.57,6.6,6.6,0,0,1-.09-1.35v-3.24h-1.26Z"></path><path class="cls-2" d="M324.94,103.67a.86.86,0,0,1,.61.25.86.86,0,0,1-.61,1.46.81.81,0,0,1-.59-.25.85.85,0,0,1-.25-.6.83.83,0,0,1,.25-.6A.82.82,0,0,1,324.94,103.67Zm-.71,3.08h1.44v7.32h-1.44Z"></path><path class="cls-2" d="M333.21,112.36v1.43a6,6,0,0,1-2.12.41,3.51,3.51,0,0,1-3.75-3.75,3.89,3.89,0,0,1,1-2.78,3.39,3.39,0,0,1,2.61-1.06,4,4,0,0,1,1,.11,6.08,6.08,0,0,1,1.1.4v1.54a3.78,3.78,0,0,0-2-.7,2.05,2.05,0,0,0-1.6.69,2.49,2.49,0,0,0-.63,1.75,2.37,2.37,0,0,0,.68,1.78,2.5,2.5,0,0,0,1.82.66A4.78,4.78,0,0,0,333.21,112.36Z"></path><path class="cls-2" d="M334.49,113.54V112a6.49,6.49,0,0,0,1.25.7,2.83,2.83,0,0,0,1.07.27,1.43,1.43,0,0,0,.78-.22.66.66,0,0,0,.32-.54.72.72,0,0,0-.21-.53,5,5,0,0,0-.91-.61,6.2,6.2,0,0,1-1.82-1.33,1.9,1.9,0,0,1-.43-1.2,1.72,1.72,0,0,1,.65-1.38,2.62,2.62,0,0,1,1.68-.53,4.65,4.65,0,0,1,2.2.6v1.43a4.37,4.37,0,0,0-2.1-.77,1.16,1.16,0,0,0-.68.18.54.54,0,0,0-.26.47.66.66,0,0,0,.24.48,3.73,3.73,0,0,0,.82.56l.51.3c1.21.68,1.82,1.45,1.82,2.28a1.82,1.82,0,0,1-.7,1.48,2.78,2.78,0,0,1-1.8.58,4.42,4.42,0,0,1-1.15-.14A8.39,8.39,0,0,1,334.49,113.54Z"></path><path class="cls-2" d="M342.23,106.62a2.13,2.13,0,0,1,1.08.29,2.19,2.19,0,0,1,.8.8,2.13,2.13,0,0,1,.29,1.08,2.16,2.16,0,0,1-2.17,2.17,2.13,2.13,0,0,1-1.08-.29,2.07,2.07,0,0,1-.79-.79,2.1,2.1,0,0,1-.29-1.09,2.13,2.13,0,0,1,.29-1.08,2.14,2.14,0,0,1,1.87-1.09Zm0,.36a1.75,1.75,0,0,0-1.27.53,1.81,1.81,0,0,0,0,2.56,1.75,1.75,0,0,0,1.27.53,1.77,1.77,0,0,0,1.28-.53,1.82,1.82,0,0,0-1.28-3.09Zm-.49,3h-.37v-2.34h.8a2.05,2.05,0,0,1,.61.07.62.62,0,0,1,.28.23.56.56,0,0,1,.1.33.65.65,0,0,1-.18.46.73.73,0,0,1-.48.2.83.83,0,0,1,.25.18,3.27,3.27,0,0,1,.29.41l.28.46h-.46l-.2-.37a2.33,2.33,0,0,0-.35-.51A.47.47,0,0,0,342,109h-.23Zm0-2v.7h.46a.91.91,0,0,0,.43-.08.3.3,0,0,0,.13-.27.28.28,0,0,0-.13-.27,1,1,0,0,0-.46-.08Z"></path><path class="cls-3" d="M67.72,73.78h-22V71.32a24.7,24.7,0,0,0,4.84-.7c1.28-.34,1.92-.77,1.92-1.28a6.1,6.1,0,0,0-.07-.76,4,4,0,0,0-.23-.8l-4.39-11H29.15c-.7,1.62-1.27,3-1.7,4.23s-.83,2.31-1.18,3.33a20.06,20.06,0,0,0-.67,2.43,7.69,7.69,0,0,0-.19,1.53c0,.92.78,1.64,2.35,2.15a20.57,20.57,0,0,0,5.31.9v2.46h-20V71.32a17.29,17.29,0,0,0,2.43-.4A8.25,8.25,0,0,0,17.92,70a9,9,0,0,0,2.32-2,12.32,12.32,0,0,0,1.6-2.82q4-9.27,8.82-20.82l8.6-20.57h3L59.92,66.32a8,8,0,0,0,1.27,2.19,8.52,8.52,0,0,0,2,1.63,8.84,8.84,0,0,0,2.24.81,12.9,12.9,0,0,0,2.31.37ZM46.4,53.66l-8-19.1-7.92,19.1Z"></path><path class="cls-3" d="M102.84,51.2a11.37,11.37,0,0,1,2.49,3.8,14,14,0,0,1-4.39,15.55,19.71,19.71,0,0,1-12.89,4.24,25.57,25.57,0,0,1-7.1-1,28.44,28.44,0,0,1-6.13-2.48l-1.61,2.53h-3L69.7,57h3a35.35,35.35,0,0,0,2.18,5.63,19.57,19.57,0,0,0,3.31,4.7,14.77,14.77,0,0,0,4.54,3.26,14.08,14.08,0,0,0,6,1.22,14.46,14.46,0,0,0,4.5-.63,7.74,7.74,0,0,0,3.12-1.77,7.16,7.16,0,0,0,1.78-2.69,10.26,10.26,0,0,0,.58-3.56A9.4,9.4,0,0,0,97,57.61a10.91,10.91,0,0,0-5.34-3.87q-2.43-.9-5.56-2c-2.1-.72-3.9-1.41-5.42-2a17.57,17.57,0,0,1-7-4.91,12.07,12.07,0,0,1-2.48-7.92,11.45,11.45,0,0,1,1.23-5.24,13.69,13.69,0,0,1,3.51-4.33,16,16,0,0,1,5.12-2.83,18.73,18.73,0,0,1,6.16-1,19.17,19.17,0,0,1,6.56,1,31.79,31.79,0,0,1,5.29,2.43l1.53-2.36h3l.3,16.34h-3C100.31,39,99.7,37.23,99,35.52a18.4,18.4,0,0,0-2.67-4.65,12.09,12.09,0,0,0-3.92-3.21,12.26,12.26,0,0,0-5.68-1.19,9,9,0,0,0-6,2.11,6.54,6.54,0,0,0-2.51,5.17A8.46,8.46,0,0,0,79.79,39a11.62,11.62,0,0,0,4.67,3.45c1.82.81,3.6,1.51,5.36,2.1s3.46,1.22,5.1,1.89a38.83,38.83,0,0,1,4.32,2.05A15.89,15.89,0,0,1,102.84,51.2Z"></path><path class="cls-3" d="M157.11,73.78h-22V71.32a24.7,24.7,0,0,0,4.84-.7c1.28-.34,1.92-.77,1.92-1.28a4.64,4.64,0,0,0-.07-.76,3.43,3.43,0,0,0-.23-.8l-4.39-11H118.53c-.7,1.62-1.26,3-1.7,4.23s-.83,2.31-1.18,3.33a22.11,22.11,0,0,0-.67,2.43,7.69,7.69,0,0,0-.19,1.53c0,.92.78,1.64,2.35,2.15a20.57,20.57,0,0,0,5.31.9v2.46h-20V71.32a17.29,17.29,0,0,0,2.43-.4A8.25,8.25,0,0,0,107.3,70a9,9,0,0,0,2.32-2,12.69,12.69,0,0,0,1.61-2.82q4-9.27,8.81-20.82l8.6-20.57h3L149.3,66.32a8,8,0,0,0,1.27,2.19,8.52,8.52,0,0,0,2,1.63,8.84,8.84,0,0,0,2.24.81,12.86,12.86,0,0,0,2.32.37ZM135.78,53.66l-8-19.1-7.92,19.1Z"></path><path class="cls-2" d="M175.1,51V72.93c2.18,1.75,6.52,3.3,9.78,4.59V51Z"></path><path class="cls-2" d="M159.89,28.81V60.94c3.26,3.12,5.43,6,9.78,8.48V28.81Z"></path><path class="cls-2" d="M144.68,14v9.25c0,11.23,4.34,21.91,9.78,30.83V14Z"></path><path class="cls-2" d="M191.1,76.08A2.2,2.2,0,1,1,188.91,74,2.11,2.11,0,0,1,191.1,76.08Zm-3.84,0a1.65,1.65,0,1,0,1.65-1.67A1.63,1.63,0,0,0,187.26,76.08Zm1.31,1.09h-.49V75.09a4.15,4.15,0,0,1,.82-.07,1.34,1.34,0,0,1,.74.16.54.54,0,0,1,.21.45.53.53,0,0,1-.44.48v0a.65.65,0,0,1,.39.51,1.64,1.64,0,0,0,.15.52h-.53a1.83,1.83,0,0,1-.17-.51c0-.23-.17-.33-.44-.33h-.24Zm0-1.18h.23c.27,0,.5-.09.5-.31s-.15-.31-.46-.31l-.27,0Z"></path></svg> 