<?xml version="1.0" encoding="UTF-8" standalone="no"?> <svg xmlns:inkscape="http://www.inkscape.org/namespaces/inkscape" xmlns:sodipodi="http://sodipodi.sourceforge.net/DTD/sodipodi-0.dtd" xmlns="http://www.w3.org/2000/svg" xmlns:svg="http://www.w3.org/2000/svg" version="1.1" id="svg2" width="400" height="207.14267" viewBox="0 0 400 207.14267" sodipodi:docname="Ascent_Horizontal.ai"><defs id="defs6"><clipPath id="clipPath16"><path d="M 0,155.357 H 300 V 0 H 0 Z" id="path14"></path></clipPath></defs><g id="g8" inkscape:groupmode="layer" inkscape:label="Ascent_Horizontal" transform="matrix(1.3333333,0,0,-1.3333333,0,207.14267)"><g id="g10"><g id="g12" clip-path="url(#clipPath16)"><g id="g18" transform="translate(77.2079,52.2806)"><path d="M 0,0 C 1.727,0.787 3.036,2.194 3.688,3.962 4.334,5.715 4.254,7.613 3.463,9.306 L -15.186,49.24 c -1.61,3.49 -5.761,5.019 -9.251,3.41 -0.938,-0.432 -1.749,-1.05 -2.409,-1.835 -0.565,-0.668 -0.48,-1.668 0.19,-2.232 0.67,-0.565 1.669,-0.478 2.233,0.19 0.359,0.428 0.801,0.763 1.314,1 1.903,0.878 4.168,0.044 5.048,-1.867 L 0.593,7.966 C 1.023,7.044 1.066,6.011 0.715,5.058 0.357,4.089 -0.363,3.317 -1.314,2.883 -1.834,2.647 -2.385,2.527 -2.953,2.527 c -1.522,0 -2.916,0.878 -3.551,2.239 l -1.937,4.141 c -0.012,0.026 -0.03,0.061 -0.043,0.086 -0.008,0.014 -0.03,0.056 -0.039,0.069 l -0.068,0.119 c -0.032,0.053 -0.073,0.115 -0.124,0.19 L -8.766,9.444 C -8.778,9.461 -8.79,9.478 -8.803,9.495 -8.873,9.587 -8.915,9.638 -8.968,9.7 l -0.083,0.095 c -0.064,0.07 -0.116,0.123 -0.137,0.142 -0.036,0.036 -0.091,0.09 -0.149,0.142 -0.019,0.017 -0.039,0.033 -0.058,0.05 l -0.172,0.139 c -0.021,0.018 -0.043,0.034 -0.065,0.051 -0.076,0.055 -0.13,0.092 -0.156,0.108 -0.051,0.035 -0.113,0.074 -0.176,0.111 -0.018,0.011 -0.036,0.022 -0.055,0.032 l -0.155,0.084 c -0.058,0.031 -0.12,0.061 -0.232,0.112 l -0.108,0.044 c -0.062,0.025 -0.109,0.043 -0.157,0.06 -0.023,0.008 -0.047,0.016 -0.07,0.023 l -0.227,0.069 c -0.024,0.007 -0.048,0.014 -0.073,0.02 -0.064,0.016 -0.145,0.034 -0.246,0.053 l -0.127,0.023 c -0.104,0.014 -0.174,0.022 -0.26,0.03 l -0.141,0.01 c -0.057,0.003 -0.132,0.005 -0.209,0.005 h -19.169 c -0.076,0 -0.151,-0.002 -0.244,-0.008 l -0.12,-0.008 c -0.072,-0.007 -0.142,-0.015 -0.292,-0.037 l -0.103,-0.019 c -0.081,-0.015 -0.162,-0.033 -0.227,-0.05 -0.023,-0.006 -0.046,-0.012 -0.069,-0.019 l -0.227,-0.068 c -0.023,-0.008 -0.047,-0.016 -0.071,-0.024 -0.046,-0.016 -0.092,-0.034 -0.174,-0.067 l -0.139,-0.058 c -0.064,-0.03 -0.125,-0.06 -0.2,-0.099 l -0.139,-0.076 c -0.018,-0.01 -0.037,-0.021 -0.055,-0.032 -0.063,-0.037 -0.124,-0.076 -0.145,-0.091 -0.056,-0.036 -0.111,-0.073 -0.187,-0.128 -0.022,-0.017 -0.044,-0.033 -0.065,-0.051 l -0.171,-0.139 c -0.02,-0.017 -0.04,-0.033 -0.059,-0.05 -0.058,-0.052 -0.113,-0.106 -0.123,-0.116 -0.05,-0.049 -0.101,-0.1 -0.192,-0.201 L -34.258,9.689 C -34.302,9.638 -34.344,9.587 -34.414,9.495 -34.427,9.478 -34.439,9.461 -34.452,9.444 L -34.51,9.359 c -0.043,-0.063 -0.083,-0.125 -0.134,-0.208 l -0.057,-0.1 c -0.005,-0.009 -0.03,-0.054 -0.035,-0.064 -0.013,-0.026 -0.028,-0.053 -0.04,-0.08 l -1.937,-4.142 c -0.635,-1.36 -2.029,-2.238 -3.551,-2.238 -0.568,0 -1.119,0.12 -1.639,0.356 -0.951,0.434 -1.671,1.206 -2.029,2.175 -0.351,0.953 -0.308,1.986 0.123,2.907 L -31.175,35 c 0.635,1.358 2.029,2.237 3.551,2.237 0.568,0 1.119,-0.12 1.639,-0.357 0.812,-0.37 1.452,-0.981 1.823,-1.71 l 5.836,-12.525 c 0.091,-0.196 0.099,-0.405 0.024,-0.607 -0.078,-0.206 -0.227,-0.364 -0.433,-0.458 -0.113,-0.052 -0.23,-0.078 -0.356,-0.078 h -8.796 c -0.875,0 -1.584,-0.709 -1.584,-1.584 0,-0.875 0.709,-1.584 1.584,-1.584 h 8.796 c 0.581,0 1.143,0.122 1.671,0.362 0.973,0.444 1.714,1.238 2.086,2.234 0.374,1.001 0.331,2.086 -0.122,3.056 l -5.029,10.77 -0.824,1.791 c -0.716,1.413 -1.91,2.555 -3.362,3.217 -0.936,0.425 -1.929,0.642 -2.953,0.642 -2.748,0 -5.269,-1.596 -6.422,-4.066 L -46.68,9.306 c -0.791,-1.693 -0.871,-3.591 -0.225,-5.344 0.652,-1.768 1.962,-3.175 3.689,-3.962 0.935,-0.426 1.928,-0.642 2.952,-0.642 2.748,0 5.268,1.595 6.423,4.065 l 1.911,4.089 0.301,0.305 -10e-4,10e-4 0.255,0.097 19.354,0.021 0.097,-0.006 0.358,-0.127 c 0.007,-0.004 0.026,-0.017 0.043,-0.029 l 0.196,-0.195 V 7.58 l 1.951,-4.157 c 1.154,-2.47 3.675,-4.065 6.423,-4.065 1.024,0 2.017,0.216 2.953,0.642" style="fill:#a561ff;fill-opacity:1;fill-rule:nonzero;stroke:none" id="path20"></path></g><g id="g22" transform="translate(270.1295,92.0879)"><path d="m 0,0 v -4.623 h -7.127 v -22.343 h -5.201 v 22.343 h -7.126 V 0 Z m -53.153,0 h 3.66 l 15.024,-17.567 V 0 h 5.2 v -26.966 h -3.66 l -15.024,17.567 v -17.567 h -5.2 z m -21.759,-4.623 v -5.586 h 8.283 v -4.622 h -8.283 v -7.513 h 11.364 v -4.622 H -80.113 V 0 h 16.181 v -4.623 z m -35.24,-8.859 c 0,-5.24 4.006,-9.247 9.207,-9.247 3.506,0 6.048,1.695 7.627,3.736 l 3.582,-3.196 c -2.388,-3.044 -6.394,-5.162 -11.324,-5.162 -8.399,0 -14.293,6.124 -14.293,13.869 0,7.742 5.817,13.867 14.215,13.867 4.007,0 7.435,-1.503 9.862,-3.852 l -3.351,-3.544 c -1.619,1.616 -3.891,2.773 -6.549,2.773 -5.124,0 -8.976,-4.122 -8.976,-9.244 m -28.963,-6.28 c 1.541,-1.696 3.891,-2.967 6.356,-2.967 2.312,0 3.929,1.426 3.929,3.391 0,3.466 -5.007,3.89 -8.628,6.008 -2.119,1.234 -3.814,3.083 -3.814,6.125 0,4.816 4.429,7.59 8.898,7.59 2.736,0 5.278,-0.655 7.821,-2.544 l -2.697,-3.85 c -1.078,0.999 -2.889,1.771 -4.662,1.771 -1.964,0 -4.159,-0.848 -4.159,-2.928 0,-4.352 12.443,-3.004 12.443,-12.096 0,-4.777 -4.277,-8.089 -9.131,-8.089 -3.621,0 -6.972,1.502 -9.746,4.045 z m -26.38,3.389 h 6.858 l -3.43,7.974 z M -175.433,-26.966 -163.877,0 h 3.659 l 11.558,-26.966 h -5.432 l -2.543,5.971 h -10.824 l -2.543,-5.971 z" style="fill:#a561ff;fill-opacity:1;fill-rule:nonzero;stroke:none" id="path24"></path></g></g></g></g></svg> 