<?xml version="1.0" encoding="UTF-8"?> <svg xmlns="http://www.w3.org/2000/svg" role="img" viewBox="-9.79 -14.29 509.08 134.08"><path fill="#31b7e6" d="M122.57323 67.98774v4.58653c-2.17347-.10361-4.29247-.22646-6.41368-.3016-3.36167-.11934-6.70306.02223-9.9632.96733-2.43243.70538-3.50545 1.95611-3.66496 4.49618-.09347 1.48031-.10556 2.9809.01833 4.45757.24518 2.93358 1.43403 4.34785 4.3524 4.66531 3.11948.34021 6.27809.40365 9.41993.41379 1.73264.00663 3.47139-.30459 5.19701-.54938 1.39295-.19812 2.28813-1.06795 2.48924-2.45024.2509-1.72406.49257-3.4684.50635-5.20507.05382-7.23788.0208-14.47472.02028-21.7126v-1.09785h6.25287v.89076c0 8.22952.0208 16.45865-.0234 24.6883-.0078 1.29493-.1911 2.62028-.5135 3.87608-.75621 2.95295-2.77368 4.65764-5.73625 5.17725-1.86121.32591-3.7518.67535-5.62913.67782-4.45653.00871-8.91878-.09646-13.36816-.34021-1.50722-.08281-3.01899-.61698-4.46524-1.12632-2.15813-.7592-3.48153-2.43243-4.14882-4.55507-1.03129-3.28302-1.18677-6.63052-.41795-10.00649.7917-3.47841 3.02562-5.53059 6.36597-6.51365 4.45146-1.31014 9.01576-1.45184 13.60476-1.30715 2.01097.06357 4.01986.17524 6.11715.26871m21.23407 13.60268v-3.96448h1.0517c5.8656.00104 11.7299.00364 17.5942.00104 1.2415-.00104 1.248-.03809.9763-1.23851-.3432-1.52607-1.1635-2.53045-2.7599-2.90628-4.8932-1.15271-9.7877-1.37462-14.716-.23712-2.3569.5434-3.692 1.95858-3.9481 4.3784-.2288 2.18205-.4511 4.35799.4498 6.46191.6318 1.47615 1.6341 2.54761 3.237 2.93358 4.8152 1.15531 9.6473 1.0283 14.4859.15496 1.3-.23465 2.2724-.83902 2.6624-2.19635.0624-.21424.3653-.51038.5603-.51389 2.1528-.03705 4.3069-.02288 6.4623-.02288-.0845 3.22712-2.3751 5.83323-5.8084 6.4376-2.1437.3783-4.3316.64896-6.5039.68198-4.225.06604-8.4591.04667-12.6789-.16003-3.1538-.15379-6.0918-1.12632-7.735-4.13608-.7241-1.32795-1.3078-2.82594-1.5444-4.31288-.4875-3.05188-.2756-6.10844.9165-9.01979 1.2038-2.94177 3.6231-4.2757 6.5715-4.89372 4.1392-.86632 8.3304-.96434 12.5346-.82875 2.8574.09243 5.707.32344 8.4474 1.20354 3.0966.9932 5.0167 3.12598 5.6173 6.31566.2405 1.27348.26 2.60702.2197 3.90858-.0377 1.22889-.6344 1.74538-1.8551 1.92972-.2288.03549-.4641.0507-.6955.0507-7.6453.0026-15.2906.0026-22.9346.00104-.1703 0-.3419-.01521-.6071-.02795m-99.44831 5.5926v4.19705c-1.13802.06097-2.26239.17628-3.38663.17264-4.16715-.01521-8.33937.03146-12.49976-.15886-1.74291-.07982-3.51416-.5434-5.1792-1.10552-2.55788-.86593-3.94979-2.9367-4.61955-5.43621-.9334-3.48257-.83993-6.98646.31434-10.41677.72514-2.15865 2.18153-3.65729 4.32497-4.51646 2.43243-.975 4.97146-1.46302 7.55469-1.67219 5.10003-.41496 10.19031-.40326 15.24159.60021 4.29754.85319 6.58827 3.41965 6.65886 7.79792.08073 4.95573.01885 9.91354.01885 14.95104h-5.97246c-.02236-.24622-.06292-.4966-.06552-.74646-.04459-4.17066-.06695-8.34236-.1391-12.51146-.01625-.92521-.16601-1.85406-.325-2.76861-.17316-.99736-.78104-1.74694-1.74889-1.99667-1.54128-.39715-3.10479-.81406-4.68208-.9425-3.78417-.30784-7.56483-.25597-11.29622.63518-2.27149.54288-3.66288 1.87135-3.90871 4.2159-.22191 2.11757-.31525 4.24281.25298 6.34101.38896 1.43455 1.18066 2.52382 2.6741 2.81489 1.76358.34268 3.55667.70434 5.3417.73216 3.55524.0559 7.11438-.11167 10.6717-.18525.22698-.00507.455-.00104.76934-.00104m41.20389 4.42663v-1.02427c.00052-3.67562.00806-7.35059-.0026-11.02465-.00247-.69823-.0533-1.39906-.12337-2.09469-.23972-2.37562-1.53101-3.85892-3.87101-4.33069-4.47889-.90129-8.97052-.93886-13.43628.07826-2.54111.57837-3.68056 1.78087-3.79288 4.91257-.14924 4.13608-.04056 8.28087-.04316 12.42215v1.07653H58.0684c-.0208-.2041-.05382-.37076-.05382-.53677.0091-4.66583-.03107-9.33361.05486-13.99892.04407-2.4258.70473-4.75059 2.71167-6.2933 1.09486-.8424 2.45531-1.49045 3.79639-1.83573 4.08889-1.05365 8.29101-1.30507 12.49326-1.06483 2.54917.14625 5.10952.45604 7.61566.94302 4.68091.91 7.00375 3.69226 7.09969 8.45962.09399 4.66479.02795 9.33257.0299 13.9984 0 .08372-.02886.16601-.05486.3133h-6.19827M.02996 46.19038h6.4218v1.06639c0 9.10455 0 28.16424.00101 37.26879 0 .29211-.00203.58409.0056.87607.03553 1.35733.39303 1.71379 1.72757 1.72393.66727.00416 6.31205 0 7.12364 0v4.54649c-.37375 0-5.685.01118-6.01762-.00156-1.77481-.06955-3.56536-.02275-5.31985-.25129C2.06375 91.17038.845 89.93031.34633 88.07521c-.20262-.75257-.32856-1.55129-.33008-2.32934-.02234-9.68799-.01523-29.33229-.01473-39.01976 0-.14521.01524-.29094.02844-.53573M204.1377 75.28139h-7.072c-.1378-1.65594-1.3702-2.03476-2.7313-2.2659-3.2136-.54535-6.4233-.61945-9.6304.04277-2.3283.48087-3.5906 1.91087-3.7583 4.28441-.1053 1.51073-.2431 3.02146-.2626 4.53375-.0403 3.20528-.013 6.41108-.013 9.69254h-6.305c-.0208-.25233-.0533-.47736-.0533-.7033.0013-4.37476-.0455-8.75212.0312-13.12545.0442-2.46285.884-4.67844 2.665-6.46295 1.2857-1.28726 2.925-1.89462 4.641-2.27188 5.9696-1.31573 11.9145-1.23305 17.7762.57993 2.0436.63219 3.7414 1.79205 4.4369 3.97514.1625.51129.1768 1.07042.2756 1.72094"></path><path fill="#7f2795" d="M369.1038 89.55799c-2.496 2.14201-5.6082 2.34871-8.6983 2.56711-4.446.31382-8.8712.1625-13.2379-.84409-3.3371-.76934-5.2117-2.90966-5.7291-6.24507-.1898-1.22629-.3003-2.47559-.3133-3.71462-.0377-4.01934-.0143-8.0392-.0143-12.14226h4.6956v1.33549c0 3.69642-.0078 7.39323.0039 11.09017.0156 4.47486 1.2259 5.98195 5.6186 6.94538 4.1496.91039 8.2927.99775 12.4332-.13559 3.6855-1.01062 5.3404-3.04083 5.3846-6.87986.0416-3.65482.0182-7.31003.0234-10.96472.0013-.44382 0-.88816 0-1.40205h4.4135c.0351.33163.1001.64688.1001.9633.0052 10.00948.0273 20.01844-.0065 30.02897-.0156 4.43068-2.0826 7.09262-6.3973 8.07016-2.0072.45449-4.0976.5652-6.1581.73633-1.2285.10156-2.4726.01777-3.7908.01777v-2.99965c.6981 0 1.3884.05941 2.067-.01167 1.9292-.20059 3.8779-.33363 5.772-.71958 2.3166-.47226 3.77-1.94898 3.8168-4.40527.0702-3.75675.0169-7.51466.0169-11.29025m87.8319-3.07983c1.7459 0 3.3592-.01885 4.9725.01781.286.00663.6955.16757.8281.39.91 1.53361 2.4687 1.94233 4.0066 2.20896 4.9205.85059 9.8397.84149 14.6705-.56264.9997-.29055 2.0241-.83889 2.7807-1.54375 1.8629-1.73264 1.1518-4.59069-1.2675-5.37875-.6188-.20215-1.3039-.26156-1.9604-.2717-6.5195-.09906-13.0416-.17524-19.5624-.25649-3.5308-.04316-5.2702-1.85497-5.0973-5.39747.1443-2.92903 1.4326-5.22028 4.3589-5.98455 2.7885-.72826 5.668-1.29298 8.5371-1.4768 4.5526-.29042 9.1403-.30056 13.6409.68965 2.665.58656 5.0674 1.64333 6.2244 4.40323.0923.2184.1235.46163.2353.8983-1.7862 0-3.4697.00871-5.1519-.01313-.1651-.00208-.4056-.15444-.4797-.30316-.8281-1.66868-2.4466-2.01968-4.0209-2.36548-4.9088-1.07861-9.8163-.86424-14.6783.27573-1.014.23764-2.0189.77298-2.8691 1.39048-1.0751.78299-1.5145 2.6416-1.0283 3.73139.5642 1.26347 1.6809 1.63059 2.9653 1.6458 6.5195.07865 13.0403.1534 19.5624.23868.6604.00858 1.3299.03042 1.9825.13455 2.8249.44785 4.2848 2.14149 4.3589 5.00552.0858 3.27028-1.9175 6.20451-5.2416 7.21747-1.8837.57395-3.8909.9776-5.8513 1.01569-4.5188.08892-9.048.00507-13.5629-.20462-2.2763-.10673-4.5006-.73736-6.4116-2.12017-1.0907-.78806-1.7836-1.82403-1.9409-3.38455m-221.8021 2.8184v2.8665c-1.4755 0-2.8756.02704-4.2744-.00507-4.9777-.11271-9.9788.03055-14.9214-.44681-5.1558-.49764-7.5998-3.34906-7.9781-8.54399-.1482-2.05257-.0494-4.13959.1222-6.1958.3744-4.49813 2.9965-6.9459 7.3099-7.93104 4.6202-1.05521 9.2833-1.28115 13.9802-1.00438 1.8993.11219 3.7908.40625 5.6732.69056 4.8191.72878 6.695 3.08243 6.9342 7.81118.2613 5.17621.0598 10.37465.0598 15.66097h-4.615c0-.44278.0013-.88465 0-1.32795-.013-4.57132.0013-9.14316-.0533-13.71344-.0377-3.21451-1.1154-4.62059-4.2679-5.35743-5.4275-1.26906-10.8563-1.20757-16.2409.31785-2.2217.63024-3.7245 2.14448-3.9234 4.35864-.2457 2.74261-.1976 5.55087.1027 8.28945.2431 2.20753 1.82 3.65885 4.0521 3.99906 2.327.35542 4.6891.60931 7.0395.65247 3.3631.06201 6.7288-.10907 10.0932-.17511.2795-.00507.5616.03302.9074.05434m79.5015-.01014v2.87417c-1.4573 0-2.8548.01417-4.2536-.00351-4.6033-.05746-9.2261.104-13.8099-.24791-6.1789-.4732-8.5865-2.99611-9.1442-9.19139-.1911-2.12615-.0546-4.31886.2275-6.44163.5525-4.1457 3.2071-6.29226 7.1669-7.21799 4.6176-1.07913 9.2781-1.30299 13.9724-1.02271 2.1437.1274 4.2926.42445 6.4051.82563 3.8571.73281 5.9514 2.95191 6.1633 6.86673.2314 4.26556.1521 8.54893.2002 12.82476.0143 1.19587.0026 2.39174.0026 3.66535h-4.6397c0-1.71275.0026-3.36427 0-5.01462-.0052-3.23986.0117-6.47972-.0247-9.71945-.039-3.47854-1.1154-4.97055-4.4772-5.73079-5.343-1.20848-10.6912-1.14712-15.9991.33878-2.3361.65403-3.6985 2.24094-4.0885 4.53479-.4888 2.87573-.5577 5.77018.3094 8.62771.5291 1.74434 1.5977 3.00014 3.3579 3.31851 2.3907.4342 4.8243.77597 7.2475.84045 3.484.09139 6.9745-.10413 10.4624-.17108.2808-.00507.5616.02639.9217.0442m-61.3106 2.96452h-4.4356c-.0377-.26052-.1001-.49257-.1001-.72514.0078-4.90295-.0143-9.80681.0572-14.70872.0338-2.40097.7657-4.5942 2.6455-6.22843 1.6003-1.39191 3.627-1.84327 5.629-2.14539 5.9904-.9035 11.9925-1.02284 17.9439.325 4.6514 1.05313 6.6573 3.26066 6.8354 8.0132.1937 5.10003.0442 10.21215.0442 15.41722h-4.4941c0-.44941.0013-.92521-.0013-1.40153-.0208-4.07121.13-8.15295-.1105-12.21142-.2938-4.95729-1.7641-6.61622-6.7236-7.13167-3.5165-.36569-7.1422-.32305-10.6561.08736-5.005.58591-6.5195 2.54358-6.6118 7.62424-.0689 3.94719-.0182 7.89542-.0221 11.84222v1.24306m196.8993-17.90893c-1.7602 0-3.2929.01157-4.8282-.01066-.2574-.00364-.6838-.08489-.7449-.24232-.5889-1.51528-2.0111-1.87785-3.2916-2.17594-5.291-1.23292-10.5846-1.38333-15.8405.31785-2.0488.66326-3.3423 1.94857-3.7232 4.07732-.5187 2.88782-.5915 5.78396.1027 8.6541.4901 2.02865 1.7277 3.38962 3.8259 3.7999 5.2312 1.02427 10.4741 1.05222 15.7014.01274 1.2428-.24778 2.5142-.61958 3.1551-1.95.0806-.16757.377-.325.5759-.32903 1.6107-.02548 3.2214-.01378 4.9283-.01378-.2691 1.75448-1.1882 2.94125-2.5779 3.58514-1.5262.7059-3.1473 1.37111-4.7931 1.625-6.3193.97097-12.6646.96993-18.9696-.17004-3.8701-.69979-5.9969-2.83361-6.7132-6.70969-.6903-3.71982-.7033-7.43951.6994-11.03336 1.183-3.03004 3.8441-4.14882 6.7015-4.75969 7.0187-1.50059 14.0257-1.1908 20.9508.6201 2.366.61841 4.1392 2.01695 4.8412 4.70236m-49.8394 14.91282v3.04291h-2.5623c-3.8571-.00104-7.722.11934-11.4894-.96343-3.3137-.95355-5.2806-3.20424-5.3365-6.64625-.1196-7.39011-.0793-14.78334-.0988-22.17566-.0013-.12025.0507-.24011.0936-.43212h4.6527v6.69552h13.1846v2.90927h-12.8674c-.1677.19799-.2171.22958-.2171.26156.039 4.22604.0169 8.45455.1521 12.67799.0715 2.21559 1.5665 3.45215 3.5906 3.9026 1.7264.38493 3.5074.58903 5.2767.70226 1.8174.11687 3.6491.02535 5.6212.02535m-71.7639-33.59837h4.7593v1.4391c0 9.42045 0 18.84194.0013 28.26291 0 .45604-.0182.91663.0312 1.36851.2015 1.80427.9269 2.46441 2.743 2.52382.4056.0143.8138.0026 1.3052.0026v2.94931c-1.7017 0-3.367.15587-4.9894-.03705-2.3296-.27781-3.5841-1.8408-3.8012-4.35448-.0533-.61958-.0468-1.2441-.0468-1.86719-.0039-9.62819-.0026-19.25625-.0026-28.88548v-1.40205m77.1498 12.54149h4.3238v23.99059h-4.3238V68.19795m4.7047-8.12903h-4.8919v-4.39309h4.8919v4.39309M197.7391-4.40302c-4.927 0-8.9362 4.0092-8.9362 8.93542 0 1.34368.3068 2.61482.8411 3.75986L145.6 37.21531c-1.4209-.95017-3.1265-1.50826-4.9595-1.50826-2.743 0-5.1987 1.24462-6.8393 3.19618l-39.70252-18.1584c.02132-.25389.03809-.50882.03809-.76778 0-4.92622-4.00764-8.9349-8.93594-8.9349-4.92843 0-8.93503 4.00868-8.93503 8.9349 0 .85826.12805 1.68597.35503 2.4726L31.68191 45.90542c-1.47316-1.07042-3.27847-1.70872-5.23497-1.70872-4.92635 0-8.93347 4.00712-8.93347 8.93347 0 4.92622 4.00712 8.9349 8.9349 8.9349 4.9283 0 8.93555-4.00868 8.93555-8.9349 0-1.11527-.21385-2.17906-.58916-3.1642L79.3884 26.74212c1.56455 1.34719 3.5958 2.16736 5.8175 2.16736 2.8457 0 5.37771-1.34108 7.01545-3.42017l39.55445 18.09795c-.0416.34541-.0676.69576-.0676 1.05222 0 4.92635 4.0092 8.93503 8.9349 8.93503 4.927 0 8.9362-4.00868 8.9362-8.93503 0-1.23955-.2561-2.42073-.7137-3.49622l44.1701-29.03472c1.3689.85306 2.9783 1.35382 4.706 1.35382 4.927 0 8.9349-4.00816 8.9349-8.93503-.0026-4.92115-4.0105-8.93035-8.9375-8.93035"></path><path fill="#31b7e6" d="M2.25976 100.25917v6.0506c0 .5662.0645 1.0471.19247 1.44472.12694.3961.31434.7211.56062.97093.2473.25138.54793.43571.90441.54845.35548.11578.75664.17164 1.20352.17164.45704 0 .86329-.05586 1.21875-.17164.35547-.11274.6571-.29707.9034-.54845.2463-.24983.43367-.57483.56165-.97093.12745-.39762.19194-.87851.19194-1.44473v-6.05059h.93083v6.25728c0 .50171-.0711.97754-.21227 1.43101-.14168.44941-.36511.84551-.67032 1.18168-.30672.33922-.69925.60684-1.17761.80234-.47989.19704-1.06132.29352-1.74637.29352-.67488 0-1.25227-.09648-1.73113-.29352-.47887-.1955-.87191-.46312-1.17712-.80234-.30569-.33617-.52913-.73227-.67132-1.18168-.14118-.45347-.21175-.9293-.21175-1.431v-6.25729h.9303m9.77489 0l5.69358 8.26973h.02847v-8.26973h.93028v9.7754h-1.04052l-5.69408-8.26972h-.02742v8.26972h-.93082v-9.7754h1.0405m9.74543 0v8.98067h5.47677v.79473h-6.40653v-9.7754h.92976m7.24906 6.4543c.14222.51645.36049.97754.65702 1.3838.29718.40472.67847.73226 1.14309.97855.46618.24629 1.02232.36969 1.67024.36969s1.20198-.1234 1.66309-.36969c.46163-.2463.83993-.57383 1.13698-.97856.29653-.40625.51545-.86734.65715-1.38378.14066-.51544.21229-1.03747.21229-1.5666 0-.53828-.07163-1.06286-.21229-1.57321-.1417-.5129-.36062-.97093-.65715-1.37617-.29705-.40625-.67535-.73226-1.13698-.98008-.46111-.24629-1.01517-.36918-1.66309-.36918s-1.20406.1229-1.67024.36918c-.46462.24782-.84591.57383-1.14309.98008-.29653.40524-.5148.86328-.65702 1.37617-.14066.51035-.21177 1.03493-.21177 1.5732 0 .52914.07111 1.05117.21177 1.5666zm-.85566-3.49629c.1924-.6109.47983-1.15272.8632-1.62245.3835-.46973.86489-.8445 1.44378-1.12227.57941-.2793 1.25281-.41895 2.01903-.41895.76726 0 1.43715.13965 2.01292.41895.57486.27778 1.05378.65254 1.43715 1.12227.38337.46973.6708 1.01155.86281 1.62245.19097.6104.28691 1.2543.28691 1.9297 0 .67538-.09594 1.31878-.28691 1.92968-.19201.61293-.47944 1.1502-.86281 1.61586-.38337.46465-.86229.8379-1.43715 1.11617-.57577.27676-1.24566.41641-2.01292.41641-.76622 0-1.43962-.13965-2.01903-.4164-.57889-.27829-1.06028-.65153-1.44378-1.11618-.38337-.46566-.6708-1.00293-.8632-1.61586-.19097-.6109-.28743-1.2543-.28743-1.92969 0-.67538.09646-1.31929.28743-1.92969m17.32393-1.00698c-.18733-.29555-.41587-.54437-.68393-.74496-.26923-.2006-.5668-.35548-.89024-.45857-.32344-.10511-.66417-.15843-1.01972-.15843-.64844 0-1.20497.1229-1.66959.36918-.46566.24782-.84656.57383-1.14309.98008-.29718.40524-.51701.86328-.65767 1.37617-.1417.51035-.21229 1.03493-.21229 1.5732 0 .52914.07059 1.05117.21229 1.5666.14066.51645.36049.97754.65767 1.3838.29653.40472.67743.73226 1.14309.97855.46462.24629 1.02115.36969 1.66959.36969.45604 0 .86684-.08278 1.23253-.2463.36465-.16503.67938-.38847.94406-.6703.26455-.28438.47879-.61445.64337-.9943.16393-.3768.2691-.78711.31434-1.22485h.93132c-.06396.60277-.20514 1.14614-.4251 1.62857-.21788.48495-.50115.89527-.84747 1.23397-.34684.33668-.75569.59668-1.22538.77848-.47073.18383-.99281.27422-1.56767.27422-.76622 0-1.44014-.13965-2.01955-.4164-.57993-.27829-1.06132-.65153-1.44365-1.11618-.38337-.46566-.67132-1.00293-.86229-1.61586-.19253-.6109-.28847-1.2543-.28847-1.92969 0-.67538.09594-1.31929.28847-1.92969.19097-.6109.47892-1.15272.86229-1.62245.38233-.46973.86372-.8445 1.44365-1.12226.57941-.27931 1.25333-.41896 2.01955-.41896.46514 0 .91975.06958 1.36201.20566.44226.13813.84396.34024 1.20497.60938.36062.26915.6617.60023.90298.9938.24115.39253.39507.84449.45851 1.35483h-.9308c-.08177-.37476-.21632-.70992-.40378-1.00698m4.03104-1.95103v5.25688l5.681-5.25688h1.26035l-4.36774 4.03813 4.57236 5.73727h-1.20458l-4.06601-5.09336-1.87538 1.73774v3.35562h-.92976v-9.7754h.92976m9.14524 0v9.7754h-.93132v-9.7754h.93132m3.27132 0l5.69413 8.26973h.02795v-8.26973h.93028v9.7754h-1.04052l-5.69465-8.26972h-.02691v8.26972h-.9308v-9.7754H61.945m16.49531 9.7754l-.12337-1.77989h-.02795c-.16302.34633-.36673.64493-.60892.8963-.24167.25136-.50882.45703-.8008.61547-.29198.15996-.60437.27675-.93691.35039-.3341.07261-.67899.10816-1.03389.10816-.76635 0-1.43962-.13965-2.01955-.4164-.57993-.27829-1.06132-.65153-1.44482-1.11618-.38233-.46566-.67028-1.00293-.86177-1.61586-.19188-.6109-.28743-1.2543-.28743-1.92969 0-.67538.09555-1.31929.28743-1.92969.19149-.6109.47944-1.15272.86177-1.62245.3835-.46973.86489-.8445 1.44482-1.12227.57993-.2793 1.2532-.41895 2.01955-.41895.51077 0 .99424.06958 1.4508.20566.45656.13813.86229.34279 1.21875.61548.35542.27422.65715.61344.90337 1.01309.24635.40268.41444.87241.50635 1.41172h-.9308c-.02743-.28286-.1209-.56875-.28093-.85568-.15938-.28792-.37375-.55097-.64285-.7871-.26962-.23867-.59163-.43165-.96642-.58246-.37375-.14981-.79313-.22598-1.25827-.22598-.64857 0-1.2051.1229-1.67024.36918-.46618.24782-.84604.57383-1.14361.98008-.29601.40524-.51597.86328-.65663 1.37617-.14157.51035-.21216 1.03493-.21216 1.5732 0 .52914.07059 1.05117.21216 1.5666.14066.51645.36062.97754.65663 1.3838.29757.40472.67743.73226 1.14361.97855.46514.24629 1.02167.36969 1.67024.36969.5382 0 1.01972-.08887 1.44417-.2666.42354-.17926.78156-.42656 1.07458-.7465.29198-.3189.51129-.69824.65663-1.1375.14625-.4367.21424-.91658.20514-1.4371h-3.32566v-.7937h4.14778v4.97046h-.6708m9.59556-.79473c.7033 0 1.30767-.07515 1.81389-.22496.50687-.15082.9243-.39101 1.25229-.71957.32955-.32906.57083-.7541.72618-1.27359.15535-.5205.23257-1.1436.23257-1.87485 0-.72871-.07722-1.35484-.23257-1.87535-.15535-.5205-.39663-.94453-.72618-1.27309-.32799-.32906-.74542-.56875-1.25229-.71855-.50622-.1498-1.11059-.22598-1.81389-.22598H86.0509v8.18594h1.98497zm.46566-8.98067c1.48798.0381 2.60871.4545 3.36128 1.25279.75205.79878 1.12931 2.01093 1.12931 3.63491 0 1.625-.37726 2.83614-1.12931 3.63441-.75257.7988-1.8733 1.21622-3.36128 1.2533h-3.38052v-9.7754h3.38052m11.43038 5.94242l-1.88903-5.01059-1.95767 5.0106h3.8467zm-1.32795-5.94243l3.83344 9.7754h-.99983l-1.1908-3.03926h-4.44899l-1.17754 3.03926h-.98514l3.92886-9.7754h1.04m10.69198 0v.79473h-3.40834v8.98067h-.93145v-8.98067h-3.39521v-.79473h7.735m5.421 5.94243l-1.88968-5.01059-1.95702 5.0106h3.8467zm-1.32795-5.94243l3.83344 9.7754h-.99983l-1.19145-3.03926h-4.44834l-1.17767 3.03926H108.42l3.92847-9.7754h1.04052m15.63302 0v.79473h-3.40847v8.98067h-.9308v-8.98067h-3.39573v-.79473h7.735m1.74499 6.4543c.1417.51645.3601.97754.6565 1.3838.2977.40472.6786.73226 1.144.97855.4654.24629 1.0218.36969 1.6692.36969.6487 0 1.2025-.1234 1.664-.36969.4615-.2463.8398-.57383 1.1362-.97856.2964-.40625.5161-.86734.6578-1.38378.1404-.51544.2119-1.03747.2119-1.5666 0-.53828-.0715-1.06286-.2119-1.57321-.1417-.5129-.3614-.97093-.6578-1.37617-.2964-.40625-.6747-.73226-1.1362-.98008-.4615-.24629-1.0153-.36918-1.664-.36918-.6474 0-1.2038.1229-1.6692.36918-.4654.24782-.8463.57383-1.144.98008-.2964.40524-.5148.86328-.6565 1.37617-.1404.51035-.2119 1.03493-.2119 1.5732 0 .52914.0715 1.05117.2119 1.5666zm-.85592-3.49629c.19292-.6109.48022-1.15272.86372-1.62245.3822-.46973.8645-.8445 1.443-1.12227.5798-.2793 1.2532-.41895 2.0189-.41895.7683 0 1.4378.13965 2.0137.41895.5746.27778 1.053.65254 1.4365 1.12227.3835.46973.6708 1.01155.8632 1.62245.1911.6104.286 1.2543.286 1.9297 0 .67538-.0949 1.31878-.286 1.92968-.1924.61293-.4797 1.1502-.8632 1.61586-.3835.46465-.8619.8379-1.4365 1.11617-.5759.27676-1.2454.41641-2.0137.41641-.7657 0-1.4391-.13965-2.0189-.4164-.5785-.27829-1.0608-.65153-1.443-1.11618-.3835-.46566-.6708-1.00293-.86372-1.61586-.19084-.6109-.28743-1.2543-.28743-1.92969 0-.67538.09659-1.31929.28743-1.92969m17.50892 6.02266c.7033 0 1.3078-.07515 1.8148-.22496.5057-.15082.923-.39101 1.2519-.71957.3289-.32906.5707-.7541.7267-1.27359.1547-.5205.2314-1.1436.2314-1.87485 0-.72871-.0767-1.35484-.2314-1.87535-.156-.5205-.3978-.94453-.7267-1.27309-.3289-.32906-.7462-.56875-1.2519-.71855-.507-.1498-1.1115-.22598-1.8148-.22598h-1.9851v8.18594h1.9851zm.4654-8.98067c1.4872.0381 2.6091.4545 3.3605 1.25279.7527.79878 1.131 2.01093 1.131 3.63491 0 1.625-.3783 2.83614-1.131 3.63441-.7514.7988-1.8733 1.21622-3.3605 1.2533h-3.38v-9.7754h3.38m10.6093 4.64141c.2821 0 .5512-.0447.8086-.1295.2548-.08785.4784-.21226.6695-.37832.1924-.1625.3445-.36054.4589-.59414.1144-.2336.1716-.49917.1716-.80133 0-.60176-.1742-1.07656-.52-1.42289-.3471-.34785-.8762-.5205-1.5886-.5205h-3.4775v3.84668h3.4775zm.0689-4.64142c.4004 0 .7813.0508 1.1427.15083.3601.10054.676.25289.9438.45855.2691.20567.4836.46973.6435.79473.1599.32348.2405.70434.2405 1.14258 0 .62206-.1599 1.15882-.4797 1.61485-.3198.45703-.793.74902-1.4235.877v.0269c.3198.0457.5837.1295.793.25238.2106.1234.3822.28082.5148.47379.1326.19145.2275.41387.2873.6627.0598.25137.0975.52304.1157.81503.0091.16352.0195.3641.0273.60277.0091.23614.0273.47634.0546.71857.0286.24273.0715.46972.1313.68452.0585.2143.1391.38086.2392.5002h-1.027c-.0546-.0914-.0975-.20312-.13-.33668-.0312-.13203-.0546-.26914-.0676-.4098a12.54901 12.54901 0 0 1-.0351-.41794c-.0091-.1371-.0182-.25643-.0273-.35648-.0182-.34683-.0481-.68961-.0884-1.0334-.0416-.34176-.1287-.64644-.2613-.9166-.1326-.26914-.3237-.48496-.5746-.65-.2509-.16402-.5954-.23766-1.0322-.21989h-3.5334v4.3408h-.9308v-9.7754h4.4772m5.8591 0v9.7754h-.9321v-9.7754h.9321m2.1619 0l3.1759 8.74707h.0286l3.1473-8.74708h.9854l-3.627 9.7754h-1.0816l-3.614-9.7754h.9854m15.1528 0v.79473h-5.8175v3.53184h5.4483v.79473h-5.4483v3.85937h5.8864v.79473h-6.8159v-9.7754h6.747m4.4772 0h1.0959l3.2162 4.95625 3.2032-4.95625h1.1089l-3.861 5.74946v4.02594h-.9295v-4.02594l-3.8337-5.74946m10.3012 6.4543c.1417.51645.3601.97754.6565 1.3838.2964.40472.6786.73226 1.1427.97855.4667.24629 1.0231.36969 1.6705.36969.6487 0 1.2025-.1234 1.6627-.36969.4615-.2463.8398-.57383 1.1375-.97856.2964-.40625.5148-.86734.6565-1.38378.1417-.51544.2132-1.03747.2132-1.5666 0-.53828-.0715-1.06286-.2132-1.57321-.1417-.5129-.3601-.97093-.6565-1.37617-.2977-.40625-.676-.73226-1.1375-.98008-.4602-.24629-1.014-.36918-1.6627-.36918-.6474 0-1.2038.1229-1.6705.36918-.4641.24782-.8463.57383-1.1427.98008-.2964.40524-.5148.86328-.6565 1.37617-.1417.51035-.2119 1.03493-.2119 1.5732 0 .52914.0702 1.05117.2119 1.5666zm-.8567-3.49629c.1924-.6109.481-1.15272.8632-1.62245.3835-.46973.8645-.8445 1.4443-1.12226.5798-.27931 1.2519-.41896 2.0189-.41896.767 0 1.4378.13965 2.0124.41896.5759.27777 1.0543.65253 1.4378 1.12226.3822.46973.6708 1.01156.8619 1.62245.1911.6104.2873 1.2543.2873 1.9297 0 .67538-.0962 1.31878-.2873 1.92968-.1911.61293-.4797 1.1502-.8619 1.61586-.3835.46465-.8619.8379-1.4378 1.11617-.5746.27676-1.2454.41641-2.0124.41641-.767 0-1.4391-.13965-2.0189-.4164-.5798-.27829-1.0608-.65153-1.4443-1.11618-.3822-.46566-.6708-1.00293-.8632-1.61586-.1911-.6109-.2873-1.2543-.2873-1.92968 0-.6754.0962-1.3193.2873-1.9297m11.4179-2.958v6.05058c0 .56622.0637 1.04712.1911 1.44473.1274.3961.3146.7211.5603.97093.2483.25138.5486.43571.9048.54845.3562.11578.7566.17164 1.2038.17164.4576 0 .8632-.05586 1.2181-.17164.3562-.11274.6578-.29707.9035-.54845.247-.24983.4342-.57483.5616-.97093.1287-.39761.1924-.87851.1924-1.44473v-6.05059h.9308v6.25728c0 .50171-.0715.97754-.2119 1.43102-.1417.4494-.3653.8455-.6708 1.18167-.3068.33922-.6981.60684-1.1778.80234-.4797.19704-1.0608.29352-1.7459.29352-.6747 0-1.2532-.09648-1.7316-.29352-.4784-.1955-.871-.46312-1.1765-.80234-.3055-.33617-.5291-.73226-.6708-1.18167-.1417-.45348-.2132-.92931-.2132-1.43102v-6.25728h.9321m13.156 4.64142c.2821 0 .5512-.0447.8073-.1295.2548-.08785.4797-.21226.6708-.37832.1911-.1625.3445-.36054.4589-.59414.1131-.2336.1703-.49917.1703-.80133 0-.60176-.1729-1.07656-.52-1.42289-.3471-.34785-.8749-.5205-1.5873-.5205h-3.4788v3.84668h3.4788zm.0689-4.64142c.4004 0 .7813.0508 1.1414.15083.3614.10054.676.25289.9451.45855.2691.20567.4836.46973.6435.79473.1599.32348.2392.70434.2392 1.14258 0 .62206-.1586 1.15882-.4784 1.61485-.3198.45703-.7943.74902-1.4248.877v.0269c.3198.0457.585.1295.7943.25238.2106.1234.3822.28082.5135.47379.1326.19145.2275.41387.2873.6627.0598.25137.0988.52304.117.81503.0091.16352.0182.3641.0273.60278.0091.23613.0273.47633.0546.71856.0273.24273.0702.46972.13.68453.0585.2143.1391.38085.2392.5002h-1.0257c-.0559-.09142-.0975-.20313-.1313-.33669-.0312-.13203-.0533-.26914-.0676-.4098-.013-.1422-.0247-.28184-.0338-.41794a178.22718 178.22718 0 0 0-.0273-.35648c-.0195-.34683-.0481-.68961-.0897-1.0334-.0403-.34176-.1274-.64644-.26-.9166-.1326-.26914-.3237-.48495-.5746-.65-.2522-.16402-.5954-.23766-1.0335-.21988h-3.5334v4.34078h-.9295v-9.7754h4.4772m13.0026 8.98067c.3471 0 .676-.02945.9867-.08886.3107-.0584.5824-.16758.8203-.32145.2379-.15488.4251-.36308.5629-.62308.1352-.25898.2054-.58653.2054-.97907 0-.62816-.2223-1.10196-.6656-1.41679-.442-.31586-1.079-.47226-1.9097-.47226h-3.2032v3.90151h3.2032zm0-4.69624c.3757 0 .6994-.04164.9737-.1295.273-.08633.5005-.20567.6838-.35648.182-.14879.3198-.325.4095-.52711.0923-.2006.1378-.41387.1378-.64238 0-1.2223-.7345-1.83423-2.2048-1.83423h-3.2032v3.4897h3.2032zm0-4.28443c.4108 0 .806.0391 1.1856.1168.3783.07871.7098.21075.9984.39712.2886.18688.5187.43316.6903.73887.1742.3062.2613.68706.2613 1.14409 0 .25493-.0416.50375-.1235.74496-.0819.24122-.1976.4611-.3497.6566-.1495.19805-.3276.3631-.533.50122-.2054.13609-.4368.23105-.6916.28691v.02691c.6292.08227 1.1323.34024 1.5067.7729.3731.43418.5603.97144.5603 1.60976 0 .1549-.013.33008-.0403.52559-.0273.19702-.0832.39761-.1638.60327-.0832.20568-.2015.4088-.3562.60938-.156.20059-.3627.37579-.6227.5266-.2613.15133-.5798.27423-.9594.3697-.3783.09495-.832.14472-1.3624.14472h-4.1327v-9.7754h4.1327m6.0372 0v6.0506c0 .5662.065 1.0471.1924 1.44472.1274.3961.3146.7211.5603.97093.2483.25138.5486.43571.9035.54845.3575.11578.7566.17164 1.2051.17164.4576 0 .8619-.05586 1.2194-.17164.3549-.11274.6565-.29707.9022-.54845.2457-.24983.4342-.57483.5616-.97093.1274-.39761.1924-.87851.1924-1.44473v-6.05059h.9308v6.25728c0 .50171-.0715.97754-.2119 1.43102-.143.4494-.3653.8455-.6721 1.18167-.3055.33922-.6981.60684-1.1765.80234-.4797.19704-1.0608.29352-1.7459.29352-.6747 0-1.2532-.09648-1.7316-.29352-.4784-.1955-.8723-.46312-1.1765-.80234-.3055-.33617-.5291-.73226-.6721-1.18167-.1404-.45348-.2119-.92931-.2119-1.43102v-6.25728h.9308m9.4185 7.81779c.1638.33617.39.60683.6786.8059.286.2021.6266.3453 1.0192.43163.3926.08785.8125.13102 1.2597.13102.2548 0 .5343-.03707.8346-.1107.3016-.07211.5811-.18891.8424-.34786.26-.15996.4758-.3641.65-.61546.1729-.25137.26-.55607.26-.91051 0-.27422-.0624-.51289-.1859-.71348-.1235-.19907-.2821-.36917-.4784-.50527-.1963-.13813-.4121-.24731-.65-.33515a6.56302 6.56302 0 0 0-.6981-.2133l-2.1775-.53319c-.2821-.07211-.559-.16505-.8281-.2727-.2691-.1107-.5031-.25644-.7046-.43926-.2002-.18179-.3627-.40523-.4862-.67184-.1222-.26405-.1846-.58753-.1846-.97093 0-.23765.0455-.51544.1365-.83535.0923-.3189.2613-.62105.5135-.9029.2509-.28285.5954-.52303 1.0348-.71855.4381-.19652.9984-.29555 1.6835-.29555.4836 0 .9438.0645 1.3819.19298.4381.12797.8216.31991 1.1505.57382.3289.25645.5902.57383.7865.95317.1976.3773.2951.81757.2951 1.3203h-.9321c-.0182-.37425-.1027-.70077-.2522-.97854-.1508-.2793-.3471-.51188-.5889-.69825-.2418-.18687-.52-.32907-.8359-.42554-.3133-.09496-.6448-.1432-.9919-.1432-.3198 0-.6266.03554-.9243.10258-.2951.06855-.5551.17925-.7787.32905-.2249.1498-.4056.34887-.5421.59516-.1378.2463-.2041.5525-.2041.9166 0 .22851.0377.42657.1144.59566.078.17012.1859.31231.3224.43267.1365.1183.2951.21327.4719.2869.1794.07262.3679.13203.5681.17774l2.3816.58804c.3471.0914.6734.20414.9802.33516.3055.13305.5746.29707.806.49258.234.19652.4173.43672.5486.71958.1326.28182.1989.62613.1989 1.02577 0 .11071-.0117.25644-.0351.43926-.0221.1818-.0767.37578-.1638.58145-.0871.20465-.2106.41386-.3692.62207-.1599.21074-.3796.40117-.6578.56875-.2782.1691-.6227.30468-1.0335.4103-.4095.10513-.9035.15743-1.4768.15743-.5759 0-1.1102-.06602-1.6029-.19805-.4927-.13203-.9126-.33515-1.2597-.60836-.3471-.27421-.6123-.62562-.8008-1.05472-.1859-.4281-.2678-.94606-.2392-1.54629h.9295c-.0078.50273.0702.92168.234 1.25938m9.1585-7.81779v9.7754h-.9321v-9.7754h.9321m3.2721 0l5.694 8.26973h.0273v-8.26973h.9308v9.7754h-1.04l-5.6953-8.26972h-.026v8.26972h-.9321v-9.7754h1.0413m15.5623 0v.79473h-5.8162v3.53184h5.447v.79473h-5.447v3.85937h5.8851v.79473h-6.8159v-9.7754h6.747m2.2451 7.81779c.1651.33617.3913.60683.6786.8059.2873.2021.6279.3453 1.0205.43163.3913.08785.8112.13102 1.2584.13102.2561 0 .5343-.03707.8359-.1107.299-.07211.5824-.18891.8411-.34786.2613-.15996.4771-.3641.65-.61546.1729-.25137.2613-.55607.2613-.91051 0-.27422-.0611-.51289-.1846-.71348-.1235-.19907-.2847-.36917-.4797-.50527-.1976-.13813-.4147-.24731-.65-.33515-.2392-.08735-.4706-.15743-.6981-.2133l-2.1762-.53319c-.2847-.07211-.5603-.16505-.8294-.2727-.2678-.1107-.5057-.25644-.7046-.43926-.2002-.18179-.3627-.40523-.4862-.67184-.1235-.26405-.1833-.58753-.1833-.97093 0-.23765.0442-.51544.1352-.83535.0897-.3189.2626-.62105.5148-.9029.2496-.28285.5941-.52303 1.0322-.71855.4381-.19652.9984-.29555 1.6835-.29555.4823 0 .9451.0645 1.3832.19298.4368.12797.8216.31991 1.1505.57382.3289.25645.5902.57383.7865.95317.1963.3773.2938.81757.2938 1.3203h-.9295c-.0208-.37425-.104-.70077-.2548-.97854-.1508-.2793-.3471-.51188-.5889-.69825-.2405-.18687-.52-.32907-.8333-.42554-.3146-.09496-.6474-.1432-.9945-.1432-.3185 0-.6266.03554-.923.10258-.2964.06855-.5564.17925-.7787.32905-.2262.1498-.4056.34887-.5421.59516-.1378.2463-.2067.5525-.2067.9166 0 .22851.0403.42657.117.59566.0793.17012.1859.31231.3211.43267.1391.1183.2951.21327.4745.2869.1768.07262.3666.13203.5681.17774l2.3803.58804c.3471.0914.6747.20414.9802.33516.3042.13305.5733.29707.8073.49258.2327.19652.4134.43672.5473.71958.1313.28182.1976.62613.1976 1.02577 0 .11071-.0104.25644-.0338.43926-.0234.1818-.078.37578-.1638.58145-.0871.20465-.2106.41386-.3692.62207-.1599.21074-.3796.40117-.6578.56875-.2795.1691-.6227.30468-1.0348.4103-.4082.10513-.9009.15743-1.4781.15743-.5746 0-1.1076-.06602-1.6003-.19805-.4927-.13203-.9139-.33515-1.261-.60836-.3458-.27421-.6123-.62562-.7995-1.05472-.1872-.4281-.2678-.94606-.2405-1.54629h.9321c-.0104.50273.0676.92168.2314 1.25938m8.8296 0c.1638.33617.3913.60683.6773.8059.2886.2021.6279.3453 1.0218.43163.3913.08785.8112.13102 1.2584.13102.2548 0 .533-.03707.8346-.1107.3003-.07211.5811-.18891.8424-.34786.26-.15996.4771-.3641.65-.61546.1729-.25137.26-.55607.26-.91051 0-.27422-.0624-.51289-.1859-.71348-.1235-.19907-.2821-.36917-.4771-.50527-.1989-.13813-.4147-.24731-.6513-.33515a6.63592 6.63592 0 0 0-.6968-.2133l-2.1788-.53319c-.2821-.07211-.559-.16505-.8281-.2727-.2691-.1107-.5044-.25644-.7046-.43926-.2002-.18179-.3627-.40523-.4862-.67184-.1235-.26405-.1846-.58753-.1846-.97093 0-.23765.0455-.51544.1378-.83535.0897-.3189.26-.62105.5122-.9029.2509-.28285.5967-.52303 1.0335-.71855.4394-.19652.9997-.29555 1.6835-.29555.4836 0 .9451.0645 1.3845.19298.4368.12797.8216.31991 1.1492.57382.3289.25645.5915.57383.7865.95317.1963.3773.2951.81757.2951 1.3203h-.9308c-.0195-.37425-.1027-.70077-.2535-.97854-.1508-.2793-.3471-.51188-.5889-.69825-.2418-.18687-.52-.32907-.8359-.42554-.3133-.09496-.6448-.1432-.9919-.1432-.3185 0-.6266.03554-.923.10258-.2964.06855-.5577.17925-.78.32905-.2249.1498-.4043.34887-.5421.59516-.1365.2463-.2054.5525-.2054.9166 0 .22851.0403.42657.1157.59566.078.17012.1872.31231.3224.43267.1365.1183.2951.21327.4719.2869.1781.07262.3679.13203.5681.17774l2.3829.58804c.3471.0914.6721.20414.9789.33516.3055.13305.5746.29707.806.49258.234.19652.416.43672.5486.71958.1326.28182.1989.62613.1989 1.02577 0 .11071-.0104.25644-.0338.43926-.0234.1818-.078.37578-.1651.58145-.0858.20465-.2093.41386-.3692.62207-.1586.21074-.3796.40117-.6565.56875-.2795.1691-.6253.30468-1.0348.4103-.4082.10513-.9035.15743-1.4781.15743s-1.1089-.06602-1.6016-.19805c-.4927-.13203-.9126-.33515-1.2597-.60836-.3458-.27421-.6136-.62562-.7995-1.05472-.1885-.4281-.2678-.94606-.2405-1.54629h.9308c-.0091.50273.0689.92168.2327 1.25938"></path></svg> 