<?xml version="1.0" encoding="UTF-8"?> <svg xmlns="http://www.w3.org/2000/svg" xmlns:xlink="http://www.w3.org/1999/xlink" version="1.1" x="0" y="0" width="220" height="110" viewBox="0, 0, 220, 110"><g id="layer1"><g><path d="M104.696,37.597 L113.974,37.597 L113.974,67.538 L107.099,67.538 L107.099,47.403 L98.304,67.538 L89.048,47.378 L89.048,67.538 L82.634,67.538 L82.634,37.597 L91.803,37.597 L98.414,53.094 z" fill="#2F3E4A" id="path14179"></path><path d="M117.392,37.597 L117.392,67.538 L134.668,67.538 L134.668,62.462 L124.09,62.462 L124.09,54.845 L134.231,54.845 L134.231,49.721 L124.09,49.721 L124.09,42.851 L134.668,42.851 L134.668,37.597 z" fill="#2F3E4A" id="path14177"></path><path d="M160.435,52.573 C160.435,63.718 172.067,72.637 184.323,66.671 L184.323,60.257 C174.892,66.863 166.683,60.242 166.818,52.829 C166.91,47.902 170.22,43.217 176.624,42.851 C179.774,42.673 181.907,43.455 184.323,45.769 L184.323,39.098 C175.467,33.85 160.435,39.626 160.435,52.573" fill="#2F3E4A" id="path14175"></path><path d="M187.15,67.538 L193.518,67.538 L193.518,37.885 L187.15,37.885 z" fill="#2F3E4A" id="path14173"></path><path d="M201.508,51.482 L211.131,37.95 L203.694,37.95 L194.16,51.457 L205.228,67.538 L212.531,67.538 z" fill="#2F3E4A" id="path14171"></path><path d="M137.645,37.596 L137.645,67.538 L144.366,67.538 L144.366,51.452 L155.476,67.538 L162.64,67.538 L153.845,54.966 C157.921,53.424 159.243,50.007 159.243,46.591 C159.243,43.177 156.378,37.596 149.436,37.596 z M144.366,42.579 L147.3,42.579 C152.26,42.579 152.524,45.821 152.524,47.032 C152.524,49.345 150.562,51.315 148.028,51.315 L144.366,51.315 z" fill="#2F3E4A" id="path14169"></path><path d="M22.335,37.597 C22.335,29.328 29.039,22.625 37.307,22.625 C45.578,22.625 52.279,29.328 52.279,37.597 z M22.335,67.54 C22.335,59.272 29.039,52.568 37.307,52.568 C29.039,52.568 22.335,45.867 22.335,37.597 C14.067,37.597 7.365,44.3 7.365,52.568 C7.365,60.839 14.067,67.54 22.335,67.54 M22.335,67.54 C22.335,75.811 29.039,82.512 37.307,82.512 C45.578,82.512 52.279,75.811 52.279,67.54 z M37.307,52.568 C45.578,52.568 52.279,59.272 52.279,67.54 C60.549,67.54 67.253,60.839 67.253,52.568 C67.253,44.3 60.549,37.597 52.279,37.597 C52.279,45.867 45.578,52.568 37.307,52.568" fill="#007A73" id="path13366"></path><g><path d="M82.634,87.212 L82.634,77.274 L84.589,77.274 L84.589,87.212 z" fill="#2F3E4A" id="Path_14_"></path><path d="M86.381,87.212 L86.381,77.274 L88.173,77.274 L92.245,83.953 L92.245,77.274 L94.2,77.274 L94.2,87.212 L92.408,87.212 L88.336,80.532 L88.336,87.212 z" fill="#2F3E4A" id="Path_15_"></path><path d="M98.599,87.212 C97.784,85.583 97.133,83.953 96.481,82.161 C95.992,80.532 95.504,78.903 95.178,77.274 L97.296,77.274 C97.458,78.577 97.784,79.881 98.11,81.184 C98.436,82.487 98.925,83.791 99.413,85.094 C99.902,83.791 100.391,82.487 100.717,81.184 C101.042,79.881 101.368,78.577 101.531,77.274 L103.486,77.274 C103.16,78.903 102.672,80.695 102.183,82.324 C101.694,83.953 101.042,85.583 100.228,87.212 L98.599,87.212 z" fill="#2F3E4A" id="Path_16_"></path><path d="M104.789,87.212 L104.789,77.274 L111.306,77.274 L111.306,78.903 L106.744,78.903 L106.744,81.347 L111.143,81.347 L111.143,82.976 L106.744,82.976 L106.744,85.583 L111.306,85.583 L111.306,87.212 z" fill="#2F3E4A" id="Path_17_"></path><path d="M112.935,87.212 L112.935,77.274 L114.727,77.274 L118.8,83.953 L118.8,77.274 L120.754,77.274 L120.754,87.212 L118.962,87.212 L114.89,80.532 L114.89,87.212 z" fill="#2F3E4A" id="Path_18_"></path><path d="M129.714,77.274 L129.714,78.903 L126.782,78.903 L126.782,87.212 L124.827,87.212 L124.827,78.903 L121.895,78.903 L121.895,77.274 z" fill="#2F3E4A" id="Path_19_"></path><path d="M131.018,87.212 L131.018,77.274 L132.973,77.274 L132.973,87.212 z" fill="#2F3E4A" id="Path_20_"></path><path d="M134.765,87.212 L134.765,77.274 L136.72,77.274 L140.792,83.953 L140.792,77.274 L142.747,77.274 L142.747,87.212 L140.792,87.212 L136.72,80.532 L136.72,87.212 z" fill="#2F3E4A" id="Path_21_"></path><path d="M148.286,87.375 C145.354,87.375 144.051,85.745 144.051,82.324 C144.051,80.695 144.376,79.392 145.191,78.415 C146.005,77.437 146.983,76.948 148.612,76.948 C149.264,76.948 149.915,77.111 150.567,77.274 C151.219,77.437 151.707,77.763 152.196,78.252 L151.381,79.555 C151.056,79.229 150.567,79.066 150.241,78.903 C149.752,78.74 149.427,78.74 148.938,78.74 C147.96,78.74 147.309,79.066 146.983,79.555 C146.657,80.207 146.331,81.021 146.331,82.324 C146.331,83.628 146.494,84.442 146.82,84.931 C147.146,85.42 147.797,85.745 148.612,85.745 C149.101,85.745 149.752,85.583 150.078,85.094 C150.404,84.605 150.567,84.116 150.567,83.465 L150.567,82.976 L148.449,82.976 L148.449,81.347 L152.522,81.347 L152.522,83.302 C152.522,84.605 152.196,85.583 151.544,86.234 C150.893,86.886 149.752,87.375 148.286,87.375 z" fill="#2F3E4A" id="Path_22_"></path><path d="M157.409,87.212 L157.409,77.274 L163.763,77.274 L163.763,78.903 L159.527,78.903 L159.527,81.51 L163.437,81.51 L163.437,83.302 L159.527,83.302 L159.527,87.212 z" fill="#2F3E4A" id="Path_23_"></path><path d="M168.976,87.375 C167.509,87.375 166.532,86.886 165.717,86.071 C164.903,85.257 164.577,83.953 164.577,82.161 C164.577,80.369 164.903,79.066 165.717,78.252 C166.532,77.437 167.509,76.948 168.976,76.948 C170.442,76.948 171.419,77.437 172.234,78.252 C173.048,79.066 173.374,80.369 173.374,82.161 C173.374,83.953 173.048,85.257 172.234,86.071 C171.419,86.886 170.442,87.375 168.976,87.375 z M168.976,85.745 C169.627,85.745 170.279,85.42 170.768,84.931 C171.093,84.442 171.256,83.465 171.256,82.161 C171.256,80.858 171.093,80.044 170.768,79.392 C170.279,78.903 169.627,78.577 168.976,78.577 C168.324,78.577 167.672,78.903 167.184,79.392 C166.858,80.044 166.695,81.021 166.695,82.161 C166.695,83.302 166.858,84.279 167.184,84.931 C167.672,85.42 168.324,85.745 168.976,85.745 L168.976,85.745 z" fill="#2F3E4A" id="Shape_4_"></path><path d="M174.677,87.212 L174.677,77.274 L178.261,77.274 C179.565,77.274 180.379,77.6 181.031,78.089 C181.683,78.577 182.008,79.555 182.008,80.369 C182.008,81.021 181.845,81.673 181.52,82.161 C181.194,82.65 180.542,82.976 180.053,83.139 C180.542,83.628 180.868,84.116 181.194,84.605 C181.52,84.931 181.845,85.42 182.008,85.908 C182.334,86.397 182.497,86.886 182.66,87.375 L180.542,87.375 C180.379,86.886 180.216,86.397 179.891,86.071 C179.728,85.583 179.402,85.257 179.076,84.768 C178.75,84.442 178.424,83.953 177.936,83.465 L176.632,83.465 L176.632,87.375 L174.677,87.375 z M178.099,78.74 L176.632,78.74 L176.632,81.673 L178.099,81.673 C178.587,81.673 179.076,81.51 179.565,81.347 C179.891,81.021 180.053,80.695 180.053,80.207 C179.891,79.229 179.402,78.74 178.099,78.74 L178.099,78.74 z" fill="#2F3E4A" id="Shape_5_"></path><path d="M187.384,87.212 L187.384,77.274 L189.339,77.274 L189.339,85.42 L193.575,85.42 L193.575,87.212 z" fill="#2F3E4A" id="Path_24_"></path><path d="M194.715,87.212 L194.715,77.274 L196.833,77.274 L196.833,87.212 z" fill="#2F3E4A" id="Path_25_"></path><path d="M198.462,87.212 L198.462,77.274 L204.816,77.274 L204.816,78.903 L200.58,78.903 L200.58,81.51 L204.49,81.51 L204.49,83.302 L200.58,83.302 L200.58,87.212 z" fill="#2F3E4A" id="Path_26_"></path><path d="M206.119,87.212 L206.119,77.274 L212.472,77.274 L212.472,78.903 L208.074,78.903 L208.074,81.347 L212.31,81.347 L212.31,82.976 L208.074,82.976 L208.074,85.583 L212.635,85.583 L212.635,87.212 z" fill="#2F3E4A" id="Path_27_"></path></g></g></g></svg> 