<?xml version="1.0" encoding="UTF-8"?> <svg xmlns="http://www.w3.org/2000/svg" role="img" viewBox="-10.95 -9.95 621.40 445.40"><style>svg {enable-background:new 0 0 600 426}</style><style>.st0{fill:#001965}</style><path d="M291.07538 420.00626v-39.20114c0-6.67194-.1055-18.70795-23.03943-18.70795-8.69046 0-14.62189 1.69232-17.81407 2.72092-3.87491 1.242-5.13944 2.71295-5.13944 4.65747v50.63922c0 1.94073.56204 2.15814 2.18141 2.15814h5.58819c1.5844 0 2.40377-.2174 2.40377-2.26666v-46.55628c0-2.6275 4.31206-5.21646 12.3236-5.21646 13.3382 0 13.3382 8.5079 13.3382 13.84857v37.92417c0 2.04925.6907 2.26666 2.51708 2.26666h6.28644c1.24875-.2174 1.35425-1.25376 1.35425-2.26666z" class="st0"></path><path d="M351.51459 393.10104c0-13.6272-4.35504-22.37176-10.96558-26.79254-4.12085-2.84512-9.61533-4.21133-14.87564-4.21133-5.21356 0-10.70804 1.3662-14.81708 4.21133-6.61834 4.42078-10.95398 13.16535-10.95398 26.79254 0 13.51075 4.33564 22.2476 10.95398 26.67612C314.96533 422.6145 320.45981 424 325.67337 424c5.26032 0 10.7548-1.3855 14.87564-4.22284 6.61054-4.42853 10.96558-13.16537 10.96558-26.67612zm-10.52863 0c0 10.68134-2.16962 17.57444-5.35379 20.55527-3.0907 2.9538-5.94723 3.74173-9.9588 3.74173-3.9804 0-6.83691-.78793-9.89624-3.74173-3.22336-2.98083-5.38919-9.87393-5.38919-20.55527 0-10.8055 2.16583-17.69879 5.3892-20.69513 3.05932-2.93035 5.91582-3.72604 9.89623-3.72604 4.01157 0 6.8681.79569 9.9588 3.72604 3.18418 2.99634 5.3538 9.88962 5.3538 20.69513z" class="st0"></path><path d="M392.20026 367.99686c0-4.09867-6.9696-5.8997-14.8367-5.8997-6.16577 0-10.05246 1.00913-13.01029 1.80103-3.89468 1.04407-5.2683 2.7207-5.2683 4.65747v51.79203c0 1.83203.6947 1.92523 2.29467 1.92523h5.81436c1.37363 0 2.06833-.0932 2.06833-1.92523v-47.45652c0-3.078 2.396-5.12722 5.81433-5.12722 7.32083 0 8.4447 5.35617 12.3392 5.35617 2.63016 0 4.7844-1.84357 4.7844-5.12326z" class="st0"></path><path d="M442.4309 416.0318v-71.30734c0-2.04923-.56982-2.29761-2.2789-2.29761h-5.61156c-1.91227 0-2.1542.6987-2.1542 2.51898v20.58249c-3.55885-1.84753-7.09428-3.08954-12.46388-3.08954-17.69317 0-26.80124 16.68951-26.80124 30.66226 0 20.69513 11.51181 30.89896 28.89274 30.89896 8.52282 0 20.41705-4.22284 20.41705-7.9682zm-10.04467-3.29141c0 2.96533-4.79977 4.53344-10.06009 4.53344-11.05926 0-18.94196-9.19091-18.94196-24.9645 0-13.75534 7.53144-22.95798 18.03666-22.95798 5.95483 0 8.78796 1.81253 10.96539 3.64456v39.74448zM467.19501 347.1c-.10932-3.39618-2.84876-5.694-6.03293-5.694-3.65253 0-6.30628 2.51126-6.30628 6.0354 0 3.18273 2.31028 5.88793 6.15802 5.88793 3.91007 0 6.28269-3.06231 6.18119-6.22933zm-1.13169 73.13897v-54.63296c0-1.81653-.4605-2.15418-2.2789-2.15418h-5.93164c-1.94323 0-1.94323.66373-1.94323 2.15418v54.63296c0 1.58759 0 2.03394 1.70907 2.03394h6.1658c1.7171 0 2.2789-.0932 2.2789-2.03394zm101.29648.78018c0-.54727-.33545-.90438-.80377-1.49041l-21.67358-28.47711-.11707-.12421c7.54718-5.5541 15.51575-14.40738 20.34674-23.9552.53864-1.13351.63214-1.58362.63214-2.26682 0-1.02462-.56964-1.25357-2.04474-1.25357h-5.36963c-2.03692 0-2.95019-.09713-3.5354 1.70386-3.1922 9.74972-11.6369 20.21762-20.2063 25.19742-.33563.24841-.44494.5743-.44494.69852 0 .23287.10931.45028.22638.57449l20.32336 28.9584c1.15503 1.68839 1.59998 1.68839 3.41052 1.68839h7.76563c.36682 0 1.49066-.0932 1.49066-1.25376zm-34.83215-.43463v-76.8807c0-1.61463-.7804-1.61463-2.17737-1.61463h-6.02515c-1.25653 0-1.94348.22895-1.94348 1.82807v76.55462c0 1.58362.34351 1.80103 1.94348 1.80103h6.02515c1.61554 0 2.17737 0 2.17737-1.68839z" class="st0"></path><path d="M514.35852 406.39063c0-19.09208-28.0967-16.13071-28.0967-28.73707 0-4.31604 3.42614-8.75631 9.81032-8.75631 6.64194 0 8.3588 4.33157 11.76178 4.33157 1.71686 0 4.12088-1.02084 4.12088-3.98996 0-4.2966-7.42236-6.80008-15.29724-6.80008-10.39575 0-19.50375 5.55808-19.50375 16.1152 0 9.7652 6.95398 13.97257 15.2814 17.48142 6.63391 2.7517 12.77637 5.23572 12.77637 11.48852 0 4.65766-3.76984 9.98264-11.7382 9.98264-8.00777 0-10.30227-5.89947-14.17336-5.89947-1.93546 0-4.34723.79168-4.34723 3.74154 0 4.65762 9.155 8.65137 18.3957 8.65137 10.27086 0 21.01003-5.45316 21.01003-17.60938z" class="st0"></path><path d="M46.98494 420.00626v-39.20114c0-6.67194-.11309-18.70795-23.0588-18.70795-8.67887 0-14.6181 1.69232-17.81408 2.72092C2.23316 366.06009 1 367.53103 1 369.47555v50.63922c0 1.94073.55404 2.15814 2.15403 2.15814h5.59198c1.5922 0 2.41177-.2174 2.41177-2.26666v-46.55628c0-2.6275 4.33144-5.21646 12.31181-5.21646 13.34198 0 13.34198 8.5079 13.34198 13.84857v37.92417c0 2.04925.70629 2.26666 2.52867 2.26666h6.28287c1.24874-.2174 1.36183-1.25376 1.36183-2.26666z" class="st0"></path><path d="M107.40456 393.10104c0-13.6272-4.34704-22.37176-10.95759-26.79254-4.12084-2.84512-9.59594-4.21133-14.86004-4.21133-5.24473 0-10.71582 1.3662-14.82888 4.21133-6.61834 4.42078-10.946 13.16535-10.946 26.79254 0 13.51075 4.32765 22.2476 10.946 26.67612C70.8711 422.6145 76.3422 424 81.58693 424c5.2641 0 10.7392-1.3855 14.86005-4.22284 6.61055-4.42853 10.95758-13.16537 10.95758-26.67612zm-10.49724 0c0 10.68134-2.17742 17.57444-5.3734 20.55527-3.0867 2.9538-5.93163 3.74173-9.947 3.74173-3.9766 0-6.83312-.78793-9.9276-3.74173-3.1842-2.98083-5.35002-9.87393-5.35002-20.55527 0-10.8055 2.16582-17.69879 5.35002-20.69513 3.09448-2.93035 5.951-3.72604 9.9276-3.72604 4.01537 0 6.8603.79569 9.947 3.72604 3.19598 2.99634 5.3734 9.88962 5.3734 20.69513zm114.78692 0c0-13.6272-4.33545-22.37176-10.96557-26.79254-4.10907-2.84512-9.57617-4.21133-14.84047-4.21133-5.25652 0-10.7354 1.3662-14.84827 4.21133-6.60675 4.42078-10.94998 13.16535-10.94998 26.79254 0 13.51075 4.34323 22.2476 10.94998 26.67612C175.1528 422.6145 180.63168 424 185.8882 424c5.2643 0 10.7314-1.3855 14.84047-4.22284 6.63012-4.42853 10.96557-13.16537 10.96557-26.67612zm-10.48945 0c0 10.68134-2.16962 17.57444-5.38518 20.55527-3.0907 2.9538-5.93543 3.74173-9.93141 3.74173-3.9842 0-6.8485-.78793-9.9392-3.74173-3.1922-2.98083-5.35402-9.87393-5.35402-20.55527 0-10.8055 2.16182-17.69879 5.35402-20.69513 3.0907-2.93035 5.955-3.72604 9.9392-3.72604 3.99598 0 6.84071.79569 9.93141 3.72604 3.21556 2.99634 5.38518 9.88962 5.38518 20.69513z" class="st0"></path><path d="M159.1455 364.6124c0-1.16056-.91308-1.16056-1.4867-1.16056h-5.70126c-.81177.10474-1.03037.44635-1.37363 1.59519l-14.84445 43.25311-15.4181-43.02023c-.56583-1.59912-.7922-1.82807-2.50927-1.82807h-6.95001c-.47213 0-1.60379 0-1.60379 1.36624 0 .46183.199 1.02063.45654 1.59516l20.65503 54.05865c.57362 1.35468.80378 1.70783 1.70128 1.80103h4.4721c1.35024 0 1.6-.0932 2.17362-1.68839l19.9721-54.1713c.45655-1.3662.45655-1.59515.45655-1.80083z" class="st0"></path><g><path d="M576.07703 324.98102h3.62133c1.93567 0 5.00281 0 5.00281 2.91864 0 2.96155-3.26233 2.96155-4.76086 2.96155h-3.86328v-5.8802zm-3.1842 16.89142h3.1842v-8.29447h1.8731c2.53669 0 3.48871.97812 5.86908 5.21646l1.7483 3.078h3.87109l-2.396-3.78823c-2.44275-3.91226-3.43396-4.50623-4.56561-4.92532v-.0932c4.08167-.23292 5.60358-3.29127 5.60358-5.46488 0-1.58343-.74927-2.98083-1.88874-3.91226-1.63116-1.39722-4.21435-1.39722-6.49346-1.39722h-6.80555v19.58112zm7.81298-28.05845c-10.02893 0-18.31757 8.0574-18.31757 18.21491 0 10.0603 8.19495 18.20712 18.31757 18.20712 10.146 0 18.29419-8.18179 18.29419-18.20712 0-10.0953-8.2417-18.2149-18.29419-18.2149zm-.03894 3.04285c8.46027 0 15.31256 6.75336 15.31256 15.17206 0 8.36423-6.8523 15.19528-15.31256 15.19528-8.43695 0-15.25806-6.83105-15.25806-15.19528 0-8.4187 6.8211-15.17206 15.25806-15.17206z" class="st0"></path></g><g><path d="M148.85641 134.2706c4.71569 6.67357 14.12722-4.42532 13.29882-6.4856-.82607-2.05346-17.97128-.1736-13.29881 6.4856zm37.2071-42.88577c24.80996 0 44.91941-20.03887 44.91941-44.70005C230.98292 22.00851 210.87347 2 186.06351 2s-44.92643 20.0085-44.92643 44.68478c0 24.66118 20.11648 44.70005 44.92643 44.70005zm1.22566-78.9527c16.4465 0 29.77336 13.2703 29.77336 29.62789 0 16.3647-13.32686 29.62033-29.77336 29.62033-16.4535 0-29.81893-13.25562-29.81893-29.62033 0-16.3576 13.36542-29.62789 29.81893-29.62789z" class="st0"></path><path d="M411.66266 170.31273c-6.0476-28.2786-30.62958-29.15416-43.75076-28.155-13.50061 1.02803-39.1348 5.03742-65.3869 5.03742-35.61692 0-75.4516-9.95965-106.08985-24.1131-5.30309-2.44977-2.66538-3.47163-.25237-4.7748 11.48432-6.20225 21.48455-11.96147 27.55797-21.79177 4.64923-7.52657 2.87334-9.94733-2.26307-5.72343-13.89486 11.42633-33.64212 17.81816-55.75182 9.9938-22.1099-7.82442-30.67065-29.01249-32.63593-34.35555-1.94194-5.33599-4.70872-5.72996-4.70872 2.09282 0 19.72985 8.78651 31.68393 11.71458 35.09517 2.93964 3.39424 4.29877 6.75388 2.67324 8.71539-4.3157 5.20785-9.06758 10.7742-9.24706 13.01039-.18814 2.34244.03407 3.63344-.92398 6.40196-.95805 2.76856-4.53688 6.7015-9.9641 13.5081-3.09411 3.90223-1.2036 8.01119 1.40436 10.89103 3.14658 3.44128 5.15026 7.40928 8.98642 9.19578 3.83596 1.7865 7.42427.46597 11.89467 1.2868 4.39893.80767 9.92981 3.37252 14.27277 11.10608 6.27911 11.21805 13.14702 28.70273 25.37791 43.25771 5.46335 6.4667 5.44 18.13968 5.46335 22.07842.3517 33.95773-17.60317 66.08957-29.01271 86.45541-2.70482 4.83731-2.15569 8.82376 1.48738 8.85455 4.15254.04474 19.71774 0 22.21687 0 2.98796 0 4.62879-3.11883 4.84584-6.3056 1.8899-27.74542 17.7085-78.7788 29.674-87.49681 20.05272 12.4087 39.95303 39.11058 30.21095 85.67528-.5254 2.51074-2.87376 8.14102 3.10237 8.14102h19.2698c2.4442 0 6.4433-.95645 6.1969-5.42154-1.00533-18.22638-16.29214-56.61972-20.3373-79.27657-2.55654-14.31921 8.92407-39.79875 52.12982-20.23568 16.7087-14.77082 38.4233-5.78295 29.14694 22.72136-9.18283 28.21774-17.15356 40.83905-48.64185 74.12555-3.60958 3.8158-3.79711 8.11035 1.87647 8.11035 2.8277 0 17.31073-.02347 20.22516-.02347 4.33801 0 6.08066-1.20715 7.42099-4.69244 1.34055-3.4853 15.65958-48.82087 43.9668-69.99744 2.18872-1.63727 4.07199-8.90964 8.45916-25.33298 13.77094 17.79044 15.4487 50.36084-7.88669 92.2407-2.43841 4.35705-.91488 7.76827 1.86716 7.76827h18.32889c3.41525 0 4.40018-1.84268 5.73203-6.92382 1.6301-6.21976 2.23355-9.26886 4.39895-15.33454 1.3428-3.76156 1.96341-4.36719 16.46192-4.21438 4.63476.04885 4.4179-2.41828 4.4179-6.28232 0-56.69155.35697-115.27347-3.92846-135.31212zm-51.56745-18.74281c4.74714 8.64467 5.00425 13.70555 3.64472 18.03529-1.35974 4.32967-7.41086 6.76593-8.73715 6.3052-.16007-9.27564-2.67447-16.31524-7.06018-22.67709 4.04495-.60878 8.09466-1.21135 12.15261-1.6634zm-37.5679 4.49057c2.74222 10.21667 2.40103 23.64502-1.4686 27.55464-6.105 6.17009-33.759 4.923-41.72042 3.7269-2.05057-.3078-4.41196-.69957-5.439-6.25782-1.22445-6.61326-1.50946-18.66687-1.8905-26.6915 16.7341 2.18038 33.67722 2.73925 50.51852 1.66778zm-98.37683 19.42642c2.25833-7.45642 4.5782-19.95622 5.78284-30.15318 5.35823 1.6252 10.76686 3.08366 16.21864 4.35936-3.66847 23.28659-10.99815 29.8387-14.86859 31.38353-2.97868 1.18885-9.3912 1.8667-7.13289-5.58971zm-49.46608 12.25577c-4.718-6.17313-10.84677-21.08306-16.15832-25.254-10.19892-8.0155-19.01102-1.73607-23.0153-6.50014-4.2622-5.1015-6.00545-5.48285-2.02247-10.34264 0 0 4.48485-5.95893 6.3609-8.47659s1.52352-7.38069 2.27712-9.4789c.74554-2.08978 5.41275-8.22136 9.98247-12.18228 5.0499-4.37682 9.20224-2.45305 25.09085 7.09162 19.30118 11.59451 25.20071 9.08511 18.5891 19.49025-4.17817 6.57522-17.7816 24.12306-21.10435 45.65268zm212.37935-7.09552c-1.06958 17.41114-4.95035 42.01846-10.97214 44.668-6.02197 2.64952-15.38797-13.33977-64.32061-14.21303-34.75095-.62013-61.4506 3.94346-66.3551 35.47679-.35706 2.29565-1.69182 1.85966-2.67528.79898-9.5399-10.28948-18.2254-14.87181-32.29042-23.01831-14.06524-8.1465-23.4647-19.29363-25.21291-30.1937-1.74822-10.90011 2.19781-25.56279 22.0847-52.31622 2.7606-3.71376 3.25955-3.37318 14.356.81111-.85003 17.87343-5.27085 27.9249-7.12854 37.1574-1.88493 9.36807 8.59362 11.39285 17.79813 9.2343 9.2045-2.15856 17.95982-11.7989 21.81828-37.61701 3.61145.73254 6.4784 1.25044 10.11817 1.83005.5266 26.77208 2.10095 32.88888 3.19925 35.39499 2.16043 4.92921 7.15332 6.55667 11.20898 6.87582 21.18778 1.66736 41.67297.97519 49.00742-6.14267s4.8031-24.51006 2.78991-33.96368c3.31366-.30986 6.14466-.61603 9.44428-1.05417 6.88733 8.06773 7.84476 16.72918 7.84476 22.38998 0 6.144 6.82495 9.32355 16.41626 2.76532 9.59133-6.55821 8.51864-18.09515 3.3882-28.57419 21.71958-1.95678 20.55045 12.27904 19.48066 29.69024zm16.1203 85.42807c-.3324 2.54129-2.80884 4.61459-3.4054-.6518-.7668-6.76965-4.28857-22.19038-5.42794-28.6707-1.06754-6.07233 2.2005-24.60449 3.39212-39.98732.10266-1.32597 1.6164-1.2829 2.53692-.31839 6.58954 6.9042 4.27512 59.14822 2.9043 69.6282z" class="st0"></path></g></svg> 